<?xml version="1.0" encoding="utf-8"?>
<!-- Generator: Adobe Illustrator 24.1.2, SVG Export Plug-In . SVG Version: 6.00 Build 0)  -->
<svg version="1.1" id="Layer_1" xmlns="http://www.w3.org/2000/svg" xmlns:xlink="http://www.w3.org/1999/xlink" x="0px" y="0px"
	 viewBox="0 0 235.63 232.57" style="enable-background:new 0 0 235.63 232.57;" xml:space="preserve">
<style type="text/css">
	.st0{enable-background:new    ;}
	.st1{fill:none;stroke:#000000;stroke-width:2;stroke-miterlimit:10;}
	.st2{fill:#FFFFFF;}
</style>
<circle class="st0" cx="47.21" cy="66.48" r="15.39"/>
<circle class="st0" cx="177.58" cy="130.46" r="15.39"/>
<path class="st0" d="M62.6,66.48"/>
<g>
	<g>
		<path class="st1" d="M66.89,60.35c9.23-2.2,35.15-6.73,62.92,6.95c26.63,13.11,38.83,35.02,42.92,43.6"/>
		<g>
			<path d="M79.32,65.28c0.14-0.42-0.08-0.87-0.5-1.02l-11.57-3.99l8.51-8.8c0.31-0.32,0.3-0.83-0.02-1.13
				c-0.32-0.31-0.83-0.3-1.13,0.02l-9.38,9.71c-0.19,0.2-0.27,0.48-0.2,0.74s0.26,0.48,0.52,0.57l12.76,4.39
				c0.15,0.05,0.3,0.06,0.45,0.02C79.01,65.74,79.23,65.55,79.32,65.28z"/>
		</g>
		<g>
			<path d="M161.08,104.33c0.23-0.37,0.73-0.49,1.1-0.25l10.37,6.5l1.5-12.15c0.05-0.44,0.45-0.75,0.89-0.7s0.75,0.46,0.7,0.89
				l-1.66,13.39c-0.03,0.27-0.2,0.51-0.45,0.62c-0.25,0.12-0.54,0.1-0.77-0.04l-11.44-7.17c-0.13-0.08-0.23-0.2-0.3-0.33
				C160.92,104.86,160.93,104.57,161.08,104.33z"/>
		</g>
	</g>
</g>
<circle class="st0" cx="94.18" cy="199.29" r="15.39"/>
<g>
	<g>
		<path class="st1" d="M167.87,149.08c-4.55,7.11-12.23,17.29-24.29,26.72c-10.12,7.91-19.95,12.66-27.35,15.52"/>
		<g>
			<path d="M123.49,180.08c0.36,0.26,0.44,0.76,0.18,1.12l-7.13,9.95l12.03,2.25c0.43,0.08,0.72,0.5,0.64,0.93s-0.5,0.72-0.93,0.64
				l-13.27-2.48c-0.27-0.05-0.49-0.23-0.6-0.49c-0.1-0.25-0.07-0.54,0.09-0.76l7.86-10.97c0.09-0.13,0.22-0.22,0.35-0.28
				C122.97,179.89,123.26,179.91,123.49,180.08z"/>
		</g>
	</g>
</g>
<g>
	<g>
		<path class="st1" d="M82.03,123.17c-2.82-0.17-14.16-1.18-23.48-10.53c-8.75-8.77-10.24-19.38-10.48-23.99"/>
		<g>
			<path d="M56.31,99.2c-0.36,0.26-0.86,0.17-1.12-0.19l-7.06-10l-6.07,10.63c-0.22,0.38-0.71,0.52-1.09,0.3
				c-0.38-0.22-0.51-0.71-0.3-1.09l6.7-11.72c0.14-0.24,0.38-0.39,0.66-0.4s0.53,0.11,0.69,0.34l7.79,11.02
				c0.09,0.13,0.14,0.28,0.15,0.42C56.66,98.77,56.54,99.04,56.31,99.2z"/>
		</g>
	</g>
</g>
<g>
	<g>
		<path class="st1" d="M75.01,182.54c-2.79-2.96-6.5-7.98-7.55-14.83c-1.88-12.21,5.41-25.38,18.56-33.07"/>
		<g>
			<path d="M73.08,169.29c-0.43,0.08-0.72,0.5-0.63,0.94l2.34,12.01l-11.88-2.96c-0.43-0.11-0.86,0.15-0.97,0.58
				s0.16,0.86,0.58,0.97l13.1,3.26c0.27,0.07,0.55-0.01,0.74-0.2c0.2-0.19,0.29-0.47,0.23-0.73l-2.58-13.25
				c-0.03-0.15-0.1-0.29-0.2-0.4C73.63,169.33,73.35,169.24,73.08,169.29z"/>
		</g>
		<g>
			<path d="M80.36,146.75c-0.39-0.2-0.54-0.69-0.34-1.08l5.69-10.84l-12.23-0.58c-0.44-0.02-0.78-0.4-0.76-0.84s0.4-0.78,0.84-0.76
				l13.48,0.64c0.27,0.01,0.52,0.16,0.66,0.4s0.14,0.53,0.01,0.77l-6.28,11.95c-0.07,0.14-0.18,0.25-0.31,0.32
				C80.9,146.87,80.61,146.88,80.36,146.75z"/>
		</g>
	</g>
</g>
<circle class="st0" cx="149.24" cy="42.19" r="15.39"/>
<g>
	<g>
		<path class="st1" d="M131.43,32.47c-6.97-2.3-20.48-5.72-37.25-3.24c-18.12,2.68-30.9,10.89-37.36,15.82"/>
		<g>
			<path d="M61.15,32.45c0.41,0.16,0.61,0.62,0.45,1.04l-4.45,11.4l12.21-0.79c0.44-0.03,0.82,0.31,0.85,0.75s-0.31,0.82-0.75,0.85
				l-13.47,0.87c-0.27,0.02-0.54-0.11-0.7-0.33s-0.2-0.51-0.1-0.76l4.91-12.57c0.06-0.15,0.15-0.27,0.27-0.35
				C60.6,32.39,60.89,32.35,61.15,32.45z"/>
		</g>
	</g>
</g>
<circle class="st0" cx="16.44" cy="145.84" r="15.39"/>
<g>
	<g>
		<path class="st1" d="M21.88,168.73c3.08,9.3,16.06,42.48,51.25,56.47c5.75,2.29,31.75,12.63,59.11,0.81
			c26.6-11.49,44.24-39.5,46.07-71.76"/>
		<g>
			<path d="M18.01,181.51c0.43,0.11,0.86-0.15,0.97-0.58l3.03-11.86l9.47,7.76c0.34,0.28,0.85,0.23,1.13-0.11
				c0.28-0.34,0.23-0.85-0.11-1.13l-10.44-8.55c-0.21-0.17-0.5-0.23-0.76-0.14s-0.46,0.3-0.53,0.56l-3.34,13.08
				c-0.04,0.15-0.03,0.31,0.02,0.45C17.53,181.23,17.74,181.44,18.01,181.51z"/>
		</g>
		<g>
			<path d="M185.18,165.67c-0.39,0.21-0.87,0.07-1.09-0.32l-5.85-10.75l-7.27,9.85c-0.26,0.36-0.76,0.43-1.12,0.17
				c-0.35-0.26-0.43-0.77-0.17-1.12l8.01-10.86c0.16-0.22,0.43-0.34,0.7-0.32s0.52,0.18,0.65,0.42l6.45,11.85
				c0.08,0.14,0.11,0.29,0.1,0.44C185.57,165.29,185.43,165.54,185.18,165.67z"/>
		</g>
	</g>
</g>
<g>
	<g>
		<path class="st1" d="M156.53,127.22c-10.43-1.53-20.86-3.05-31.3-4.58"/>
		<g>
			<path d="M137.17,116.62c0.18,0.4,0,0.88-0.4,1.06l-11.17,5.01l9.26,8c0.33,0.29,0.37,0.8,0.08,1.13s-0.8,0.37-1.13,0.08
				l-10.21-8.82c-0.21-0.18-0.31-0.45-0.27-0.72c0.04-0.27,0.21-0.5,0.46-0.61l12.31-5.53c0.14-0.06,0.3-0.08,0.44-0.06
				C136.81,116.2,137.05,116.36,137.17,116.62z"/>
		</g>
	</g>
</g>
<g>
	<g>
		<path class="st1" d="M12.39,124.79C-9.43,87.2,1.16,39.35,35.06,15.47c30.82-21.71,74.12-18.83,103.06,7.59"/>
		<g>
			<path d="M124.79,21.69c0.07-0.44,0.48-0.74,0.91-0.67l12.1,1.85l-3.44-11.75c-0.12-0.42,0.12-0.87,0.54-0.99s0.87,0.12,0.99,0.54
				l3.79,12.95c0.08,0.26,0.01,0.55-0.17,0.75c-0.18,0.21-0.45,0.31-0.72,0.26l-13.34-2.04c-0.16-0.02-0.29-0.09-0.41-0.19
				C124.86,22.23,124.75,21.97,124.79,21.69z"/>
		</g>
	</g>
</g>
<g>
	<g>
		<path class="st1" d="M110.37,209c33.45,13.68,71.29,7.36,96.36-16.2c28.86-27.11,37.14-73.58,16.2-106.89
			c-16.15-25.68-43.48-33.68-53.53-35.94"/>
		<g>
			<path d="M184.82,43.55c0.19,0.52-0.08,1.09-0.6,1.28l-14.37,5.26l10.84,10.79c0.39,0.39,0.39,1.02,0,1.41s-1.03,0.39-1.41,0
				l-11.96-11.9c-0.24-0.24-0.34-0.59-0.27-0.92c0.07-0.33,0.31-0.61,0.63-0.72l15.84-5.8c0.18-0.07,0.38-0.08,0.56-0.04
				C184.41,42.99,184.69,43.22,184.82,43.55z"/>
		</g>
	</g>
</g>
<circle class="st0" cx="103.9" cy="121.55" r="15.39"/>
<circle class="st2" cx="109.97" cy="120.33" r="2.83"/>
<circle class="st2" cx="103.49" cy="114.67" r="2.83"/>
<circle class="st2" cx="169.89" cy="133.29" r="2.83"/>
<circle class="st2" cx="172.32" cy="124.38" r="2.83"/>
<circle class="st2" cx="103.49" cy="199.69" r="2.83"/>
<circle class="st2" cx="98.63" cy="192.4" r="2.83"/>
<circle class="st2" cx="25.75" cy="143.01" r="2.83"/>
<circle class="st2" cx="18.46" cy="138.96" r="2.83"/>
<circle class="st2" cx="55.71" cy="62.84" r="2.83"/>
<circle class="st2" cx="50.86" cy="69.32" r="2.83"/>
<circle class="st2" cx="142.36" cy="48.26" r="2.83"/>
<circle class="st2" cx="152.08" cy="49.07" r="2.83"/>
</svg>
