<?xml version="1.0" encoding="utf-8"?>
<!-- Generator: Adobe Illustrator 24.1.2, SVG Export Plug-In . SVG Version: 6.00 Build 0)  -->
<svg version="1.1" id="Layer_1" xmlns="http://www.w3.org/2000/svg" xmlns:xlink="http://www.w3.org/1999/xlink" x="0px" y="0px"
	 viewBox="0 0 1562 792" style="enable-background:new 0 0 1562 792;" xml:space="preserve">
<style type="text/css">
	.st0{fill:#FF0000;}
</style>
<g id="Layer_2_1_">
	<circle class="st0" cx="1451.608" cy="193.334" r="8.613"/>
	<circle class="st0" cx="1492.688" cy="396" r="9.317"/>
	<circle class="st0" cx="1492.688" cy="453.063" r="15.239"/>
	<circle class="st0" cx="1239.584" cy="62.144" r="9.939"/>
	<circle class="st0" cx="1182.602" cy="121.775" r="13.252"/>
	<circle class="st0" cx="1038.161" cy="116.475" r="12.589"/>
	<circle class="st0" cx="1397.277" cy="301.996" r="11.926"/>
	<circle class="st0" cx="1325.719" cy="514.02" r="12.589"/>
	<circle class="st0" cx="1038.161" cy="351.027" r="12.589"/>
	
		<ellipse transform="matrix(0.1602 -0.9871 0.9871 0.1602 445.3659 1344.7808)" class="st0" cx="1012.983" cy="410.658" rx="12.589" ry="12.589"/>
	<circle class="st0" cx="904.321" cy="213.211" r="7.951"/>
	<circle class="st0" cx="1000.394" cy="221.162" r="8.945"/>
	<circle class="st0" cx="1284.639" cy="280.794" r="12.589"/>
	<circle class="st0" cx="1313.13" cy="351.027" r="12.589"/>
	<circle class="st0" cx="1338.307" cy="108.524" r="10.932"/>
	<circle class="st0" cx="1260.786" cy="121.775" r="13.252"/>
	<circle class="st0" cx="1072.615" cy="184.72" r="17.227"/>
</g>
</svg>
