<?xml version="1.0" encoding="utf-8"?>
<!-- Generator: Adobe Illustrator 24.1.2, SVG Export Plug-In . SVG Version: 6.00 Build 0)  -->
<svg version="1.1" id="Layer_1" xmlns="http://www.w3.org/2000/svg" xmlns:xlink="http://www.w3.org/1999/xlink" x="0px" y="0px"
	 viewBox="0 0 512 512" style="enable-background:new 0 0 512 512;" xml:space="preserve">
<g>
	<g>
		<path d="M280.166,492.054c-7.434,0-14.006-4.467-16.744-11.378c-3.657-9.229,0.877-19.713,10.106-23.37l0.632-0.25V377h-36.32
			v80.052l0.631,0.25c4.596,1.821,8.276,5.502,10.098,10.098c1.771,4.469,1.697,9.36-0.21,13.772
			c-1.908,4.412-5.419,7.817-9.888,9.589c-2.128,0.844-4.357,1.271-6.626,1.271c-7.428,0-13.997-4.463-16.735-11.369
			c-3.656-9.225,0.874-19.705,10.098-23.361l0.631-0.25V377h-36.36v51.52c-0.002,3.307-2.694,5.998-6,6h-47.12v22.536l0.631,0.25
			c4.596,1.821,8.277,5.502,10.098,10.098c3.657,9.225-0.873,19.704-10.098,23.361c-2.128,0.844-4.357,1.271-6.626,1.271
			c-7.428,0-13.997-4.463-16.735-11.369c-3.656-9.225,0.874-19.705,10.098-23.361l0.631-0.25V428.52
			c0.002-3.306,2.694-5.997,6.001-6h47.119V377H141c-3.306-0.002-5.998-2.693-6-6.001V334.52H89.48v47.12
			c-0.001,3.307-2.693,5.998-6,6H54.944l-0.25,0.632c-1.822,4.6-5.506,8.284-10.106,10.106c-2.129,0.844-4.358,1.271-6.626,1.271
			c-7.433,0-14.005-4.467-16.743-11.378c-1.771-4.471-1.696-9.363,0.213-13.777c1.909-4.414,5.422-7.82,9.893-9.592
			c2.129-0.844,4.358-1.271,6.626-1.271c7.433,0,14.005,4.466,16.744,11.377l0.25,0.632H77.48v-47.12
			c0.002-3.306,2.694-5.997,6.001-6H135V286.16H54.945l-0.25,0.632c-1.823,4.601-5.506,8.284-10.106,10.106
			c-2.128,0.843-4.358,1.271-6.626,1.271c-7.433,0-14.005-4.466-16.744-11.377c-3.657-9.229,0.877-19.713,10.106-23.37
			c2.129-0.844,4.358-1.271,6.626-1.271c7.433,0,14.005,4.466,16.744,11.377l0.25,0.632H135v-36.32H54.949l-0.25,0.631
			c-1.821,4.596-5.502,8.276-10.098,10.098c-2.128,0.844-4.358,1.271-6.626,1.271c-7.428,0-13.997-4.463-16.735-11.37
			c-1.771-4.468-1.697-9.359,0.21-13.771c1.907-4.413,5.419-7.818,9.888-9.589c2.128-0.844,4.357-1.271,6.626-1.271
			c7.428,0,13.998,4.463,16.735,11.37l0.25,0.631H135v-36.36H83.48c-3.306-0.002-5.998-2.694-6-6v-47.12H54.949l-0.25,0.632
			c-1.822,4.598-5.504,8.28-10.102,10.102c-2.129,0.844-4.358,1.271-6.626,1.271c-7.431,0-14.001-4.464-16.739-11.374
			c-3.656-9.227,0.875-19.709,10.103-23.366c2.128-0.843,4.357-1.271,6.626-1.271c7.431,0,14.001,4.464,16.739,11.374l0.25,0.631
			H83.48c3.307,0.002,5.999,2.694,6,6v47.12H135V141c0.002-3.306,2.694-5.998,6-6h36.479V89.48h-47.12c-3.306-0.001-5.998-2.693-6-6
			V54.945l-0.632-0.25c-4.6-1.822-8.283-5.506-10.106-10.106c-1.771-4.471-1.696-9.364,0.213-13.778
			c1.909-4.414,5.422-7.82,9.893-9.592c2.129-0.843,4.358-1.271,6.626-1.271c7.433,0,14.005,4.466,16.744,11.377
			c1.771,4.471,1.696,9.364-0.213,13.778c-1.909,4.414-5.422,7.82-9.893,9.592l-0.632,0.25V77.48h47.12c3.306,0.002,5.998,2.694,6,6
			V135h36.36V54.945l-0.632-0.25c-4.6-1.822-8.283-5.506-10.106-10.106c-1.771-4.471-1.696-9.364,0.213-13.778
			c1.909-4.414,5.422-7.82,9.893-9.592c2.129-0.843,4.358-1.271,6.626-1.271c7.433,0,14.005,4.466,16.744,11.377
			c3.657,9.229-0.877,19.713-10.106,23.37l-0.632,0.25V135h36.32V54.949l-0.632-0.25c-4.596-1.821-8.276-5.502-10.098-10.098
			c-1.771-4.468-1.696-9.359,0.211-13.771c1.907-4.413,5.418-7.818,9.887-9.589c2.129-0.844,4.358-1.271,6.627-1.271
			c7.428,0,13.996,4.463,16.734,11.37c1.771,4.468,1.696,9.359-0.211,13.772c-1.907,4.412-5.418,7.818-9.887,9.589l-0.632,0.25V135
			h36.359V83.48c0.003-3.306,2.694-5.998,6.001-6h47.119V54.945l-0.632-0.25c-4.595-1.821-8.275-5.502-10.098-10.098
			c-3.656-9.225,0.874-19.705,10.098-23.361c2.129-0.844,4.358-1.271,6.627-1.271c7.429,0,13.997,4.463,16.734,11.369
			c1.771,4.469,1.696,9.36-0.211,13.772c-1.907,4.413-5.418,7.818-9.887,9.589l-0.632,0.25V83.48c-0.002,3.307-2.693,5.999-6.001,6
			H334.52V135H371c3.307,0.002,5.998,2.694,6,6v36.479h45.52v-47.12c0.003-3.306,2.694-5.998,6.001-6h28.535l0.25-0.632
			c1.822-4.6,5.506-8.284,10.106-10.106c2.129-0.843,4.358-1.271,6.627-1.271c7.433,0,14.005,4.466,16.743,11.377
			c3.656,9.23-0.878,19.713-10.106,23.37c-2.129,0.843-4.358,1.271-6.627,1.271c-7.433,0-14.005-4.466-16.743-11.377l-0.25-0.632
			H434.52v47.12c-0.002,3.306-2.693,5.998-6.001,6H377v36.36h80.056l0.25-0.632c1.822-4.6,5.506-8.284,10.106-10.106
			c2.129-0.843,4.358-1.271,6.627-1.271c7.433,0,14.005,4.466,16.743,11.377c3.657,9.229-0.877,19.713-10.106,23.37
			c-2.129,0.843-4.358,1.271-6.627,1.271c-7.433,0-14.005-4.466-16.743-11.377l-0.25-0.632H377v36.32h80.052l0.25-0.632
			c1.821-4.596,5.502-8.276,10.098-10.098c2.129-0.844,4.358-1.271,6.627-1.271c7.428,0,13.996,4.463,16.734,11.369
			c1.771,4.469,1.696,9.359-0.211,13.772c-1.907,4.412-5.418,7.817-9.887,9.589c-2.129,0.844-4.358,1.271-6.626,1.271
			c-7.429,0-13.997-4.463-16.735-11.369l-0.25-0.632H377v36.359h51.52c3.307,0.003,5.998,2.694,6,6.001v47.119h22.536l0.25-0.632
			c1.821-4.595,5.502-8.275,10.099-10.098c2.128-0.844,4.356-1.271,6.625-1.271c7.429,0,13.998,4.463,16.735,11.369
			c1.771,4.469,1.696,9.36-0.211,13.772s-5.418,7.818-9.887,9.589c-2.129,0.844-4.358,1.271-6.626,1.271
			c-7.429,0-13.997-4.463-16.735-11.369l-0.25-0.632H428.52c-3.306-0.002-5.997-2.693-6-6.001V334.52H377V371
			c-0.002,3.307-2.693,5.998-6.001,6H334.52v45.52h47.12c3.307,0.003,5.998,2.694,6,6.001v28.535l0.632,0.25
			c4.598,1.822,8.28,5.504,10.103,10.102c1.771,4.471,1.696,9.362-0.212,13.775s-5.421,7.819-9.891,9.591
			c-2.129,0.844-4.358,1.271-6.626,1.271c-7.431,0-14.001-4.465-16.739-11.374c-1.771-4.47-1.696-9.361,0.212-13.774
			s5.42-7.819,9.89-9.591l0.632-0.25V434.52h-47.12c-3.306-0.002-5.997-2.693-6-6.001V377H286.16v80.056l0.632,0.25
			c4.601,1.823,8.284,5.507,10.106,10.106c3.656,9.229-0.878,19.714-10.106,23.37C284.663,491.626,282.434,492.054,280.166,492.054z
			 M381.644,468c-3.309,0-6,2.691-6,6s2.691,6,6,6c3.307-0.002,5.998-2.693,6-5.999C387.644,470.691,384.952,468,381.644,468z
			 M280.168,468c-3.309,0-6,2.691-6,6s2.691,6,6,6c3.307-0.002,5.998-2.693,6-5.999C286.168,470.691,283.477,468,280.168,468z
			 M231.832,468c-3.309,0-6,2.691-6,6s2.691,6,6,6c3.304-0.005,5.995-2.695,6-5.998C237.832,470.691,235.141,468,231.832,468z
			 M130.356,468c-3.309,0-6,2.691-6,6s2.691,6,6,6c3.304-0.005,5.995-2.695,6-5.998C136.356,470.691,133.665,468,130.356,468z
			 M473.999,375.644c-3.306,0.004-5.997,2.694-5.999,5.999c0,3.31,2.691,6.001,6,6.001s6-2.691,6-6S477.309,375.644,473.999,375.644
			L473.999,375.644z M38,375.644c-3.309,0-6,2.691-6,6s2.691,6,6,6c3.304-0.005,5.995-2.695,6-5.998
			C44,378.335,41.309,375.644,38,375.644z M147,365h218V147H147V365z M473.999,274.168c-3.306,0.002-5.997,2.693-5.999,5.999
			c0,3.31,2.691,6.001,6,6.001s6-2.691,6-6S477.309,274.168,473.999,274.168L473.999,274.168z M38,274.168c-3.309,0-6,2.691-6,6
			s2.691,6,6,6c3.304-0.005,5.995-2.695,6-5.998C44,276.859,41.309,274.168,38,274.168z M473.998,225.832
			c-3.308,0.005-5.998,2.7-5.998,6.008c0,3.309,2.691,6,6,6s6-2.691,6-6c0-2.968-2.166-5.439-5-5.917v-0.085L473.998,225.832z
			 M38,225.832c-3.309,0-6,2.691-6,6s2.691,6,6,6c3.306-0.003,5.997-2.694,6-5.999C44,228.523,41.309,225.832,38,225.832z
			 M473.998,124.356c-3.308,0.005-5.998,2.7-5.998,6.008c0,3.309,2.691,6,6,6s6-2.691,6-6c0-2.968-2.166-5.439-5-5.917v-0.085
			L473.998,124.356z M38,124.356c-3.309,0-6,2.691-6,6s2.691,6,6,6c3.306-0.002,5.997-2.693,6-5.999
			C44,127.047,41.309,124.356,38,124.356z M381.642,32c-3.302,0.005-5.992,2.696-5.998,5.998c0,3.311,2.691,6.002,6,6.002
			s6-2.691,6-6s-2.691-6-6-6H381.642z M280.166,32c-3.302,0.005-5.992,2.696-5.998,5.998c0,3.311,2.691,6.002,6,6.002s6-2.691,6-6
			s-2.691-6-6-6H280.166z M231.831,32c-3.305,0.003-5.996,2.694-5.999,5.999c0,3.31,2.691,6.001,6,6.001s6-2.691,6-6
			S235.141,32,231.831,32L231.831,32z M130.355,32c-3.305,0.003-5.996,2.694-5.999,5.999c0,3.31,2.691,6.001,6,6.001s6-2.691,6-6
			S133.665,32,130.355,32L130.355,32z"/>
	</g>
	<g>
		<path d="M177,338c-1.652-0.001-2.999-1.348-3-3.003V177c0.001-1.652,1.348-2.999,3.002-3H335c1.652,0.001,2.999,1.348,3,3.002V335
			c-0.001,1.652-1.348,2.999-3.002,3H335H177z M180,332h152V180H180V332z"/>
	</g>
	<g>
		<path d="M311,262.332c-1.653-0.002-2.999-1.349-3-3.002v-39.498c0-1.654,1.346-3,3-3s3,1.346,3,3v39.5
			C313.999,260.983,312.653,262.33,311,262.332z"/>
	</g>
</g>
</svg>
