<?xml version="1.0" encoding="utf-8"?>
<!-- Generator: Adobe Illustrator 24.1.2, SVG Export Plug-In . SVG Version: 6.00 Build 0)  -->
<svg version="1.1" id="Capa_1" xmlns="http://www.w3.org/2000/svg" xmlns:xlink="http://www.w3.org/1999/xlink" x="0px" y="0px"
	 viewBox="0 0 511.999 511.999" style="enable-background:new 0 0 511.999 511.999;" xml:space="preserve">
<g>
	<g>
		<g>
			<path d="M183.107,508.999c-1.869,0-3.627-0.729-4.95-2.051L16.049,344.84c-1.322-1.323-2.05-3.081-2.05-4.95
				c0-1.868,0.729-3.626,2.051-4.949l49.616-49.616l-0.279-1.6c-4.831-25.962,11.475-83.258,31.649-149.924
				c4.864-16.069,9.458-31.248,12.499-42.616c7.317-27.352,25.132-37.097,39.365-37.097c9.586,0,18.938,4.287,25.657,11.762
				c8.587,9.552,12.406,23.341,10.754,38.828c-1.673,15.68-3.183,30.315-4.49,43.5l-0.131,1.32l0.9,1.022l0.894,0.991l1.372,0.016
				h1.242l0.915-0.894L322.089,14.559C329.543,7.105,339.488,3,350.093,3c10.615,0,20.574,4.112,28.041,11.578
				c5.343,5.342,9.021,12.038,10.639,19.364l0.52,2.353l2.457,0.038h1.045l0.85-0.66c7.053-5.651,15.604-8.633,24.741-8.633
				c10.617,0,20.576,4.112,28.043,11.578c11.479,11.477,14.801,28.564,8.465,43.532l-0.581,1.372l0.744,1.334l0.75,1.305l1.53,0.203
				c8.538,1.172,16.329,5.047,22.48,11.199c7.462,7.462,11.573,17.414,11.578,28.023c0.006,10.612-4.099,20.564-11.558,28.021
				l-15.233,15.234l0.454,1.733l0.478,1.719l1.774,0.437c7.221,1.648,13.82,5.305,19.094,10.577
				c7.475,7.476,11.594,17.43,11.598,28.028c0.003,10.598-4.108,20.548-11.578,28.017l-96.245,96.245
				c-2.523,2.522-5.231,5.247-8.1,8.133l-0.514,0.516c-51.636,51.946-105.046,103.337-140.849,111.396l-0.844,0.183l-0.885,0.184
				l-1.01,1.021l-49.92,49.922C186.734,508.271,184.976,508.999,183.107,508.999z M131.947,384.056c1.87,0,3.628,0.728,4.951,2.05
				c2.729,2.729,2.729,7.17-0.001,9.899l-24.907,24.907l2.121,2.191l67.72,67.72l1.278,0.015h1.243l0.914-0.894l43.63-43.639
				c2.34-2.37,3.55-3.322,7.056-3.978c0.435-0.082,0.967-0.182,1.684-0.343c34.829-7.84,99.342-72.74,134.001-107.607l0.546-0.55
				c2.866-2.884,5.572-5.605,8.095-8.129l59.252-59.252l-2.121-2.191l-32.833-32.833l-1.277-0.015h-1.242l-0.914,0.893
				l-27.577,27.579c-1.322,1.321-3.081,2.05-4.95,2.05c-2.045,0-3.919-0.852-5.277-2.398c-2.417-2.755-2.166-7.059,0.573-9.797
				l68.342-68.347l-2.121-2.192L397.3,146.365l-1.277-0.015h-1.243l-0.914,0.894l-66.469,66.47c-1.323,1.322-3.081,2.05-4.95,2.05
				c-2.044,0-3.918-0.852-5.277-2.399c-2.417-2.754-2.166-7.058,0.573-9.797l76.3-76.301l0.022-1.267l0.008-1.253l-0.901-0.921
				l-32.83-32.833l-1.279-0.015h-1.242l-0.914,0.894l-75.675,75.673c-1.323,1.322-3.081,2.051-4.95,2.051
				c-2.044,0-3.918-0.852-5.277-2.399c-2.418-2.754-2.166-7.058,0.573-9.797l61.273-61.273l-2.121-2.192l-32.829-32.832
				l-1.278-0.015h-1.242l-0.914,0.893L181.091,175.355l1.957,2.187c13.669,14.745,31.721,37.826,40.108,64.068
				c10.794,33.778,2.934,65.198-22.733,90.863c-1.323,1.322-3.081,2.051-4.95,2.051c-2.028,0-3.961-0.885-5.301-2.428
				c-2.386-2.746-2.163-6.999,0.508-9.681c22.213-22.302,28.475-47.339,19.14-76.544c-8.542-26.727-28.358-50.376-43.502-65.529
				c-0.055-0.061-0.109-0.118-0.165-0.173c-0.071-0.074-0.188-0.205-0.3-0.337l-0.105-0.121c-0.117-0.144-0.232-0.304-0.342-0.466
				l-0.089-0.143c-0.105-0.17-0.167-0.271-0.224-0.375c-0.05-0.092-0.096-0.178-0.14-0.266c-0.049-0.098-0.096-0.204-0.143-0.309
				l-0.114-0.259c-0.062-0.156-0.125-0.335-0.18-0.517l-0.049-0.189c-0.044-0.161-0.077-0.292-0.105-0.424l-0.036-0.2
				c-0.028-0.157-0.046-0.28-0.059-0.404l-0.029-0.252c-0.011-0.133-0.017-0.289-0.02-0.446l-0.007-0.207
				c0.001-0.124,0.008-0.306,0.022-0.492l0.012-0.14l0,0.011c0.03-0.35,0.763-8.743,2.349-24.855l0.286-2.897l-2.931-0.427
				l-51.568-6.868l-2.459,0l-0.675,2.201c-9.011,29.788-17.605,58.689-23.609,84.467c-9.411,40.41-7.538,53.75-5.583,58.106
				c1.181,2.633,0.604,5.773-1.437,7.814l-47.686,47.683l2.122,2.192l67.72,67.72l1.278,0.015h1.243l0.914-0.894l22.786-22.785
				C128.319,384.783,130.077,384.056,131.947,384.056z M415.357,218.088c-0.01,0.01-1.296,1.303-2.577,2.597l-1.758,1.781
				c-0.786,0.8-2.874,2.925-0.771,5.034l32.989,32.686c0,0,1.278,0.002,1.302,0.002c1.248,0,1.351-0.103,7.081-5.833l24.901-24.901
				c4.832-4.832,7.491-11.268,7.486-18.122c-0.004-6.853-2.67-13.29-7.507-18.126c-4.822-4.821-11.265-7.477-18.141-7.477
				c-6.862,0-13.291,2.646-18.101,7.452l-0.332,0.333L415.357,218.088z M408.081,133.03c-0.01,0.01-1.306,1.313-2.596,2.616
				l-1.771,1.794c-0.788,0.802-2.883,2.934-0.773,5.043l33.005,32.664c0,0,1.276,0.002,1.299,0.002c1.25,0,1.351-0.101,7.104-5.854
				l25.591-25.589c4.812-4.812,7.461-11.245,7.456-18.116c-0.003-6.872-2.659-13.311-7.478-18.129
				c-4.823-4.823-11.267-7.479-18.143-7.479c-6.861,0-13.289,2.646-18.097,7.451l-0.159,0.161L408.081,133.03z M148.9,68.088
				c-11.531,0-21.432,10.236-25.84,26.715c-1.833,6.85-4.201,15.062-7.918,27.462c-2.485,8.14-2.485,8.14-1.708,9.341l0.762,1.18
				l50.44,6.156h0.183c2.654,0,2.964-2.451,3.114-3.629l0.276-2.229c0.2-1.638,0.396-3.279,0.398-3.293
				c0.806-7.854,1.729-16.71,2.785-26.597c1.226-11.485-1.347-21.423-7.244-27.983C160.017,70.617,154.603,68.088,148.9,68.088z
				 M418.385,41.038c-6.867,0-13.297,2.648-18.104,7.457l-35.67,35.75l35.168,34.716c0,0,1.29,0.002,1.32,0.002
				c1.25,0,1.354-0.104,5.765-4.515l29.685-29.684c4.832-4.832,7.491-11.268,7.487-18.122c-0.005-6.853-2.67-13.29-7.507-18.125
				C431.707,43.694,425.264,41.038,418.385,41.038z M350.092,17c-6.866,0-13.295,2.648-18.104,7.457l-23.311,23.312l-6.268,6.065
				l35.395,34.8h1.228c1.246,0,1.298-0.051,4.004-2.726c0.352-0.348,0.704-0.696,1.004-0.993h0.023l24.287-24.288
				c4.751-4.8,7.364-11.193,7.361-18.018c-0.003-6.872-2.659-13.311-7.479-18.131C363.413,19.655,356.97,17,350.092,17z"/>
		</g>
		<g>
			<path d="M309.761,281.253c-0.864,0-1.688-0.372-2.258-1.021c-14.511-16.495-30.776-33.736-44.626-47.302
				c-0.57-0.559-0.89-1.309-0.897-2.112c-0.009-0.803,0.295-1.56,0.854-2.13c0.577-0.589,1.319-0.9,2.145-0.9
				c0.789,0,1.535,0.305,2.1,0.857c13.961,13.676,30.339,31.036,44.932,47.627c0.538,0.61,0.795,1.361,0.742,2.172
				c-0.051,0.801-0.41,1.533-1.012,2.062C311.191,280.987,310.488,281.253,309.761,281.253z"/>
		</g>
	</g>
</g>
</svg>
