<?xml version="1.0" encoding="utf-8"?>
<!-- Generator: Adobe Illustrator 24.1.2, SVG Export Plug-In . SVG Version: 6.00 Build 0)  -->
<svg version="1.1" id="Capa_1" xmlns="http://www.w3.org/2000/svg" xmlns:xlink="http://www.w3.org/1999/xlink" x="0px" y="0px"
	 viewBox="0 0 512 409.6" style="enable-background:new 0 0 512 409.6;" xml:space="preserve">
<g>
	<g>
		<g>
			<g>
				<path d="M256,339.334c-140.056,0-254-75.664-254-168.667C2,77.664,115.944,2,256,2c140.056,0,254,75.664,254,168.667
					C510,263.67,396.056,339.334,256,339.334z M256,15.067c-132.851,0-240.933,69.802-240.933,155.6
					c0,85.798,108.082,155.6,240.933,155.6c132.851,0,240.933-69.802,240.933-155.6C496.933,84.869,388.851,15.067,256,15.067z"/>
			</g>
		</g>
	</g>
</g>
<g>
	<g>
		<g>
			<g>
				<path d="M256,293.667c-55.002,0-107.342-13.788-147.378-38.825c-39.307-24.581-60.955-56.396-60.955-89.586
					c0-33.189,21.647-65.004,60.955-89.585C148.658,50.634,200.999,36.845,256,36.845c55.005,0,107.346,13.789,147.382,38.825
					c39.305,24.581,60.951,56.396,60.951,89.585s-21.646,65.006-60.951,89.586C363.346,279.879,311.005,293.667,256,293.667z
					 M256,44.633c-52.332,0-102.253,12.43-140.566,35c-39.144,23.06-60.701,53.468-60.701,85.623s21.558,62.563,60.701,85.622
					c38.313,22.57,88.233,35,140.566,35c52.332,0,102.253-12.43,140.565-35c39.144-23.06,60.701-53.468,60.701-85.623
					s-21.558-62.563-60.701-85.623C358.253,57.062,308.332,44.633,256,44.633z"/>
			</g>
		</g>
	</g>
</g>
<g>
	<g>
		<g>
			<g>
				<path d="M256,407.6c-140.056,0-254-75.663-254-168.666v-66.267h13.086c1.658,84.884,109.092,153.6,240.914,153.6
					s239.256-68.716,240.913-153.6L510,172.666v66.267C510,331.936,396.056,407.6,256,407.6z M15.067,238.933
					c0,85.799,108.082,155.601,240.933,155.601c132.851,0,240.933-69.802,240.933-155.601v-14.417l-3.73,6.443
					c-18.216,31.458-49.914,58.376-91.669,77.844c-42.839,19.973-93.164,30.53-145.533,30.53c-52.368,0-102.692-10.558-145.53-30.53
					c-41.753-19.468-73.453-46.386-91.672-77.844l-3.73-6.442V238.933z"/>
			</g>
		</g>
	</g>
</g>
<g>
	<g>
		<g>
			<g>
				<path d="M448.733,267.742l1.24-1.053c31.124-26.526,48.272-57.902,49.841-91.032H507v63.267
					c0,37.097-18.133,72.157-52.438,101.393l-5.828,4.97V267.742z M490.607,229.872c-8.149,14.055-19.293,27.395-33.123,39.648
					l-1.685,1.492v59.396l8.643-9.193c23.218-24.695,35.49-53.148,35.49-82.282v-25.146L490.607,229.872z"/>
			</g>
		</g>
	</g>
</g>
<g>
	<g>
		<g>
			<g>
				<path d="M303.667,326.227l3.047-0.42c30.198-4.163,58.597-11.961,84.408-23.177l4.936-2.144v75.974l-2.125,0.921
					c-26.366,11.463-55.389,19.432-86.264,23.689l-4.002,0.554V326.227z M382.205,313.916c-21.028,8.09-43.654,14.082-67.252,17.811
					l-4.22,0.666v61.16l5.821-0.97c24.541-4.087,47.873-10.639,69.348-19.474l3.098-1.274v-60.532L382.205,313.916z"/>
			</g>
		</g>
	</g>
</g>
<g>
	<g>
		<g>
			<g>
				<g>
					<polygon points="213.333,407.364 213.316,407.362 213.316,407.364 					"/>
				</g>
				<g>
					<path d="M204.313,401.07c-30.862-4.255-59.883-12.225-86.259-23.688l-2.13-0.923v-75.974l4.939,2.144
						c25.792,11.204,54.19,19.002,84.405,23.177l3.047,0.42v75.396L204.313,401.07z M123,371.835l3.098,1.274
						c21.475,8.835,44.807,15.387,69.348,19.474l5.821,0.97v-61.16l-4.22-0.666c-23.617-3.731-46.244-9.724-67.251-17.81
						L123,311.301V371.835z"/>
				</g>
			</g>
		</g>
	</g>
</g>
<g>
	<g>
		<g>
			<g>
				<path d="M57.448,340.327C23.136,311.085,5,276.024,5,238.933v-63.267h7.184c1.568,33.118,18.72,64.492,49.843,91.024l1.24,1.056
					v77.542L57.448,340.327z M12.067,238.933c0,29.135,12.272,57.588,35.491,82.282l8.643,9.192v-59.396l-1.684-1.492
					c-13.829-12.253-24.973-25.593-33.124-39.648l-9.325-16.082V238.933z"/>
			</g>
		</g>
	</g>
</g>
</svg>
