<?xml version="1.0" encoding="utf-8"?>
<!-- Generator: Adobe Illustrator 24.1.2, SVG Export Plug-In . SVG Version: 6.00 Build 0)  -->
<svg version="1.1" id="Layer_1" xmlns="http://www.w3.org/2000/svg" xmlns:xlink="http://www.w3.org/1999/xlink" x="0px" y="0px"
	 viewBox="0 0 1039.41 434.99" style="enable-background:new 0 0 1039.41 434.99;" xml:space="preserve">
<style type="text/css">
	.st0{opacity:0.8;}
	.st1{fill:#FFFFFF;}
	.st2{opacity:0.3;fill:#662D91;}
	.st3{opacity:0.7;}
	.st4{fill:none;stroke:#000000;stroke-width:2;stroke-miterlimit:10;}
</style>
<g class="st0">
	<path class="st1" d="M389.38,335.47c0.26-1.91,2.87-5.21,8.1-11.79c5.81-7.32,11.19-12.5,13.89-15.01
		c26.57-24.63,39.88-37.3,61.35-46.1c11.81-4.84,49.84-20.43,84.5-6.43c13.93,5.63,26.38,15.66,33.57,21.44
		c12.75,10.27,20.84,16.67,28.94,26.8c4.7,5.88,9.9,13.61,20.84,19.3c4.11,2.14,5.39,2.09,5.79,3.22c3,8.44-55.63,47.87-122.7,52.54
		C452.67,384.37,387.52,349.29,389.38,335.47z"/>
	<circle class="st2" cx="519.51" cy="291.96" r="60.46"/>
	<path d="M518.85,0L267.7,434.99h502.29L518.85,0z M524.13,379.37c-70.99,4.94-136.14-30.14-134.27-43.96
		c0.26-1.91,2.87-5.21,8.1-11.79c5.81-7.32,11.19-12.5,13.89-15.01c26.57-24.63,39.88-37.3,61.35-46.1
		c11.81-4.84,49.84-20.43,84.5-6.43c13.93,5.63,26.38,15.66,33.57,21.44c12.75,10.27,20.84,16.67,28.94,26.8
		c4.7,5.88,9.9,13.61,20.84,19.3c4.11,2.14,5.39,2.09,5.79,3.22C649.82,335.28,591.19,374.71,524.13,379.37z"/>
	<circle class="st3" cx="519.51" cy="291.96" r="33.25"/>
</g>
<g class="st0">
	<g>
		<circle cx="198.05" cy="147.31" r="15.39"/>
		<circle class="st1" cx="199.37" cy="153.36" r="2.83"/>
		<circle class="st1" cx="204.93" cy="146.79" r="2.83"/>
	</g>
	<g>
		<g>
			<path class="st4" d="M220.85,160.5c11.99,10.38,27.24,21.72,46,32c36.94,20.24,71.82,27.78,96.09,30.77"/>
			<g>
				<path d="M351.08,229.4c-0.19-0.4-0.01-0.88,0.39-1.06l11.11-5.15l-9.36-7.89c-0.34-0.28-0.38-0.79-0.1-1.13
					c0.28-0.34,0.79-0.38,1.13-0.1l10.32,8.7c0.21,0.18,0.31,0.45,0.28,0.72s-0.21,0.5-0.46,0.62l-12.25,5.68
					c-0.14,0.07-0.3,0.09-0.44,0.07C351.44,229.82,351.2,229.66,351.08,229.4z"/>
			</g>
		</g>
	</g>
</g>
<g class="st0">
	<g>
		<circle cx="112.39" cy="182.79" r="15.39"/>
		<circle class="st1" cx="113.71" cy="188.84" r="2.83"/>
		<circle class="st1" cx="119.26" cy="182.27" r="2.83"/>
	</g>
	<g>
		<g>
			<path class="st4" d="M135.19,195.98c22.93,12.68,48.16,25.38,75.66,37.52c41.42,18.29,80.59,32.03,116.16,42.46"/>
			<g>
				<path d="M314.3,280.06c-0.12-0.43,0.13-0.87,0.56-0.98l11.8-3.25l-7.93-9.32c-0.29-0.34-0.25-0.84,0.09-1.13
					c0.34-0.29,0.84-0.24,1.13,0.09l8.75,10.28c0.18,0.21,0.24,0.49,0.16,0.75s-0.29,0.46-0.55,0.54l-13.01,3.58
					c-0.15,0.04-0.31,0.04-0.45-0.01C314.58,280.53,314.37,280.33,314.3,280.06z"/>
			</g>
		</g>
	</g>
</g>
<g class="st0">
	<g>
		<circle cx="15.39" cy="404.79" r="15.39"/>
		<circle class="st1" cx="18.98" cy="409.83" r="2.83"/>
		<circle class="st1" cx="21.5" cy="401.6" r="2.83"/>
	</g>
	<g>
		<g>
			<path class="st4" d="M38.85,409.5c25.84,4.84,54.63,8.82,86,11c46.82,3.25,88.98,1.74,125.09-1.81"/>
			<g>
				<path d="M239.66,427.2c-0.27-0.35-0.2-0.85,0.15-1.12l9.76-7.39l-10.82-5.71c-0.39-0.21-0.54-0.69-0.33-1.08
					c0.21-0.39,0.69-0.54,1.08-0.33l11.94,6.3c0.24,0.13,0.4,0.37,0.42,0.64s-0.1,0.54-0.31,0.7l-10.76,8.15
					c-0.13,0.09-0.27,0.15-0.42,0.16C240.1,427.53,239.83,427.42,239.66,427.2z"/>
			</g>
		</g>
	</g>
</g>
<g class="st0">
	<g>
		<circle cx="35.39" cy="284.79" r="15.39"/>
		<circle class="st1" cx="36.71" cy="290.84" r="2.83"/>
		<circle class="st1" cx="42.26" cy="284.27" r="2.83"/>
	</g>
	<g>
		<g>
			<path class="st4" d="M58.19,297.98c23.12,10.88,50.42,21.7,81.66,30.52c56.44,15.94,106.97,20.07,146.08,20.01"/>
			<g>
				<path d="M274.92,356.06c-0.23-0.37-0.12-0.87,0.26-1.1l10.38-6.48l-10.27-6.67c-0.37-0.24-0.48-0.74-0.24-1.11
					c0.24-0.37,0.74-0.47,1.11-0.24l11.32,7.35c0.23,0.15,0.37,0.4,0.36,0.68s-0.14,0.53-0.38,0.67l-11.45,7.15
					c-0.13,0.08-0.28,0.12-0.43,0.12C275.33,356.44,275.07,356.3,274.92,356.06z"/>
			</g>
		</g>
	</g>
</g>
<g class="st0">
	<g>
		<circle cx="841.36" cy="130.15" r="15.39"/>
		<circle class="st1" cx="840.04" cy="136.21" r="2.83"/>
		<circle class="st1" cx="834.48" cy="129.63" r="2.83"/>
	</g>
	<g>
		<g>
			<path class="st4" d="M818.56,143.34c-12.79,10.53-28.07,21.57-46,32c-36.77,21.39-71.69,32.6-98.84,38.74"/>
			<g>
				<path d="M682.59,204.06c0.32,0.31,0.32,0.81,0.02,1.13l-8.53,8.78l11.56,4.02c0.42,0.15,0.64,0.6,0.49,1.02
					c-0.15,0.42-0.6,0.64-1.02,0.49l-12.75-4.43c-0.26-0.09-0.45-0.31-0.52-0.57s0.01-0.55,0.2-0.74l9.41-9.68
					c0.11-0.11,0.25-0.19,0.39-0.22C682.1,203.8,682.39,203.87,682.59,204.06z"/>
			</g>
		</g>
	</g>
</g>
<g class="st0">
	<g>
		<circle cx="927.02" cy="165.63" r="15.39"/>
		<circle class="st1" cx="925.7" cy="171.68" r="2.83"/>
		<circle class="st1" cx="920.14" cy="165.11" r="2.83"/>
	</g>
	<g>
		<g>
			<path class="st4" d="M904.22,178.82c-24.31,12.6-49.54,25.14-75.66,37.52c-40.77,19.32-80.5,36.73-118.94,52.43"/>
			<g>
				<path d="M716.69,257.41c0.36,0.25,0.46,0.75,0.2,1.11l-6.94,10.08l12.07,2.03c0.44,0.07,0.73,0.49,0.66,0.92
					c-0.07,0.44-0.49,0.73-0.92,0.66l-13.31-2.24c-0.27-0.05-0.5-0.23-0.6-0.48s-0.08-0.54,0.08-0.77l7.65-11.12
					c0.09-0.13,0.21-0.23,0.35-0.28C716.17,257.23,716.46,257.25,716.69,257.41z"/>
			</g>
		</g>
	</g>
</g>
<g class="st0">
	<g>
		<circle cx="1024.02" cy="387.63" r="15.39"/>
		<circle class="st1" cx="1020.42" cy="392.68" r="2.83"/>
		<circle class="st1" cx="1017.9" cy="384.44" r="2.83"/>
	</g>
	<g>
		<g>
			<path class="st4" d="M1000.56,392.34c-26.72,4.53-55.44,8.35-86,11c-47.82,4.14-92.03,4.72-131.79,3.23"/>
			<g>
				<path d="M793.89,399.14c0.23,0.38,0.11,0.87-0.27,1.1l-10.48,6.32l10.16,6.83c0.37,0.25,0.46,0.74,0.22,1.11
					c-0.25,0.37-0.75,0.46-1.11,0.22l-11.2-7.53c-0.23-0.15-0.36-0.41-0.35-0.68s0.15-0.52,0.39-0.67l11.56-6.97
					c0.13-0.08,0.29-0.12,0.43-0.11C793.49,398.76,793.74,398.89,793.89,399.14z"/>
			</g>
		</g>
	</g>
</g>
<g class="st0">
	<g>
		<circle cx="1004.02" cy="267.63" r="15.39"/>
		<circle class="st1" cx="1002.7" cy="273.68" r="2.83"/>
		<circle class="st1" cx="997.14" cy="267.11" r="2.83"/>
	</g>
	<g>
		<g>
			<path class="st4" d="M981.22,280.82c-36.78,11.14-74.58,22.06-113.37,32.68c-41.54,11.37-82.27,21.86-122.13,31.55"/>
			<g>
				<path d="M754.46,334.93c0.32,0.3,0.33,0.81,0.03,1.13l-8.42,8.88l11.61,3.87c0.42,0.14,0.65,0.59,0.51,1.01s-0.6,0.64-1.01,0.51
					l-12.8-4.27c-0.26-0.09-0.46-0.3-0.52-0.56s0.01-0.55,0.2-0.74l9.28-9.8c0.11-0.11,0.24-0.19,0.39-0.23
					C753.97,334.67,754.25,334.73,754.46,334.93z"/>
			</g>
		</g>
	</g>
</g>
</svg>
