<?xml version="1.0" encoding="utf-8"?>
<!-- Generator: Adobe Illustrator 24.1.2, SVG Export Plug-In . SVG Version: 6.00 Build 0)  -->
<svg version="1.1" id="Layer_1" xmlns="http://www.w3.org/2000/svg" xmlns:xlink="http://www.w3.org/1999/xlink" x="0px" y="0px"
	 viewBox="0 0 258.8 153.496" style="enable-background:new 0 0 258.8 153.496;" xml:space="preserve">
<style type="text/css">
	.st0{fill:none;stroke:#FF0000;stroke-width:0.5;stroke-miterlimit:10;stroke-dasharray:0.5;}
	.st1{fill:#FF0000;}
</style>
<line class="st0" x1="99.321" y1="127.615" x2="98.917" y2="78.913"/>
<line class="st0" x1="69.011" y1="117.353" x2="98.917" y2="78.913"/>
<line class="st0" x1="25.395" y1="43.28" x2="73.036" y2="51.723"/>
<line class="st0" x1="29.715" y1="73.977" x2="73.036" y2="51.723"/>
<circle class="st1" cx="129.4" cy="4" r="4"/>
<circle class="st1" cx="113.176" cy="40.547" r="3.6"/>
<circle class="st1" cx="98.917" cy="78.913" r="3.2"/>
<circle class="st1" cx="73.036" cy="51.723" r="3.2"/>
<circle class="st1" cx="25.395" cy="43.28" r="2.8"/>
<circle class="st1" cx="4.4" cy="32" r="2.4"/>
<circle class="st1" cx="2.4" cy="50" r="2.4"/>
<circle class="st1" cx="6.4" cy="73" r="2.4"/>
<circle class="st1" cx="14.4" cy="91" r="2.4"/>
<circle class="st1" cx="48.471" cy="128.493" r="2.4"/>
<circle class="st1" cx="66.638" cy="140.779" r="2.4"/>
<circle class="st1" cx="88.282" cy="149.472" r="2.4"/>
<circle class="st1" cx="109.808" cy="151.095" r="2.4"/>
<circle class="st1" cx="29.715" cy="73.977" r="2.8"/>
<circle class="st1" cx="69.011" cy="117.353" r="2.8"/>
<circle class="st1" cx="99.321" cy="127.615" r="2.8"/>
<line class="st0" x1="129.4" y1="4" x2="113.176" y2="40.547"/>
<line class="st0" x1="113.176" y1="40.547" x2="98.917" y2="78.913"/>
<line class="st0" x1="73.036" y1="51.723" x2="113.176" y2="40.547"/>
<line class="st0" x1="4.4" y1="32" x2="25.395" y2="43.28"/>
<line class="st0" x1="2.4" y1="50" x2="25.395" y2="43.28"/>
<line class="st0" x1="6.4" y1="73" x2="29.715" y2="73.977"/>
<line class="st0" x1="14.4" y1="91" x2="29.715" y2="73.977"/>
<line class="st0" x1="48.471" y1="128.493" x2="69.011" y2="117.353"/>
<line class="st0" x1="66.638" y1="140.779" x2="69.011" y2="117.353"/>
<line class="st0" x1="88.282" y1="149.472" x2="99.321" y2="127.615"/>
<line class="st0" x1="109.808" y1="151.095" x2="99.321" y2="127.615"/>
<line class="st0" x1="159.479" y1="126.98" x2="159.882" y2="78.279"/>
<line class="st0" x1="189.789" y1="116.718" x2="159.882" y2="78.279"/>
<line class="st0" x1="233.405" y1="42.645" x2="185.763" y2="51.088"/>
<line class="st0" x1="229.085" y1="73.342" x2="185.763" y2="51.088"/>
<circle class="st1" cx="145.623" cy="39.912" r="3.6"/>
<circle class="st1" cx="159.882" cy="78.279" r="3.2"/>
<circle class="st1" cx="185.763" cy="51.088" r="3.2"/>
<circle class="st1" cx="233.405" cy="42.645" r="2.8"/>
<circle class="st1" cx="254.399" cy="31.366" r="2.4"/>
<circle class="st1" cx="256.399" cy="49.366" r="2.4"/>
<circle class="st1" cx="252.399" cy="72.366" r="2.4"/>
<circle class="st1" cx="244.399" cy="90.366" r="2.4"/>
<circle class="st1" cx="210.328" cy="127.858" r="2.4"/>
<circle class="st1" cx="192.161" cy="140.145" r="2.4"/>
<circle class="st1" cx="170.518" cy="148.838" r="2.4"/>
<circle class="st1" cx="148.992" cy="150.46" r="2.4"/>
<circle class="st1" cx="229.085" cy="73.342" r="2.8"/>
<circle class="st1" cx="189.789" cy="116.718" r="2.8"/>
<circle class="st1" cx="159.479" cy="126.98" r="2.8"/>
<line class="st0" x1="129.4" y1="3.365" x2="145.623" y2="39.912"/>
<line class="st0" x1="145.623" y1="39.912" x2="159.882" y2="78.279"/>
<line class="st0" x1="185.763" y1="51.088" x2="145.623" y2="39.912"/>
<line class="st0" x1="254.399" y1="31.366" x2="233.405" y2="42.645"/>
<line class="st0" x1="256.399" y1="49.366" x2="233.405" y2="42.645"/>
<line class="st0" x1="252.399" y1="72.366" x2="229.085" y2="73.342"/>
<line class="st0" x1="244.399" y1="90.366" x2="229.085" y2="73.342"/>
<line class="st0" x1="210.328" y1="127.858" x2="189.789" y2="116.718"/>
<line class="st0" x1="192.161" y1="140.145" x2="189.789" y2="116.718"/>
<line class="st0" x1="168.862" y1="145.559" x2="161.134" y2="130.259"/>
<line class="st0" x1="148.992" y1="150.46" x2="159.479" y2="126.98"/>
</svg>
