<?xml version="1.0" encoding="utf-8"?>
<!-- Generator: Adobe Illustrator 19.0.0, SVG Export Plug-In . SVG Version: 6.00 Build 0)  -->
<svg version="1.1" id="icon-sun" xmlns="http://www.w3.org/2000/svg" xmlns:xlink="http://www.w3.org/1999/xlink" x="0px" y="0px"
	 viewBox="0 0 512 512" style="enable-background:new 0 0 512 512;" xml:space="preserve">
    <g>
    	<path d="M420.518,273.86h33.011V238.14h-33.011c-1.858-17.233-6.373-33.679-13.124-48.925l66.686-38.499l-17.86-30.934
    		l-66.734,38.529c-10.036-13.676-22.118-25.758-35.795-35.795l16.541-28.651l-30.934-17.86l-16.513,28.602
    		c-15.246-6.751-31.692-11.266-48.925-13.124V14.496H238.14v76.986c-17.233,1.857-33.679,6.373-48.925,13.124l-16.513-28.602
    		l-30.934,17.86l16.541,28.651c-13.676,10.036-25.758,22.118-35.795,35.795l-66.734-38.529l-17.86,30.934l66.685,38.5
    		c-6.751,15.246-11.266,31.692-13.124,48.925H58.469v35.721H91.48c1.857,17.233,6.373,33.679,13.124,48.925l-66.685,38.5
    		l17.86,30.934l66.734-38.529c10.036,13.676,22.118,25.758,35.795,35.795l-16.541,28.651l30.934,17.86l16.513-28.602
    		c15.246,6.751,31.692,11.266,48.925,13.124v76.986h35.721v-76.986c17.233-1.858,33.679-6.373,48.925-13.124l16.513,28.602
    		l30.934-17.86l-16.541-28.651c13.676-10.036,25.758-22.118,35.795-35.795l66.734,38.529l17.86-30.934l-66.685-38.5
    		C414.145,307.539,418.66,291.093,420.518,273.86z M256,385.767c-71.553,0-129.766-58.213-129.766-129.766
    		S184.447,126.235,256,126.235s129.766,58.213,129.766,129.766S327.553,385.767,256,385.767z"/>
    	<rect x="356.9" y="443.257" transform="matrix(0.866 -0.5 0.5 0.866 -180.6564 249.2467)" width="35.72" height="36.935"/>
    	<rect x="475.065" y="238.141" width="36.935" height="35.721"/>
    	<rect x="356.289" y="32.432" transform="matrix(0.5 -0.866 0.866 0.5 143.8202 349.6915)" width="36.935" height="35.72"/>
    	<rect x="119.374" y="31.813" transform="matrix(0.866 -0.5 0.5 0.866 -6.7539 75.3551)" width="35.72" height="36.935"/>
    	<rect y="238.141" width="36.935" height="35.721"/>
    	<rect x="118.766" y="443.858" transform="matrix(0.5 -0.866 0.866 0.5 -331.2411 349.7009)" width="36.935" height="35.72"/>
    </g>
</svg>
