<?xml version="1.0" encoding="utf-8"?>
<!-- Generator: Adobe Illustrator 24.1.2, SVG Export Plug-In . SVG Version: 6.00 Build 0)  -->
<svg version="1.1" id="Layer_1" xmlns="http://www.w3.org/2000/svg" xmlns:xlink="http://www.w3.org/1999/xlink" x="0px" y="0px"
	 viewBox="0 0 798.77 618.16" style="enable-background:new 0 0 798.77 618.16;" xml:space="preserve">
<style type="text/css">
	.st0{opacity:0.18;fill:#ED1C24;}
	.st1{opacity:0.8;}
	.st2{fill:none;stroke:#000000;stroke-width:2;stroke-miterlimit:10;}
	.st3{fill:#FFFFFF;}
	.st4{fill:none;stroke:#FF0000;stroke-width:14;stroke-miterlimit:10;}
	.st5{fill:#FF0000;}
	.st6{opacity:0.3;fill:#662D91;}
	.st7{opacity:0.7;}
	.st8{fill:none;stroke:#000000;stroke-width:10;stroke-miterlimit:10;}
</style>
<circle class="st0" cx="650.73" cy="232.16" r="148"/>
<circle class="st1" cx="715.06" cy="185.8" r="15.39"/>
<circle class="st1" cx="616.04" cy="292.03" r="15.39"/>
<path d="M710.6,200.53"/>
<g class="st1">
	<g>
		<path class="st2" d="M715.23,206.41c-0.57,9.47-3.75,35.59-24.89,58.21c-20.27,21.68-44.77,27.01-54.17,28.44"/>
		<g>
			<path d="M706.9,216.88c0.36,0.26,0.86,0.18,1.12-0.18l7.17-9.92l5.96,10.69c0.22,0.39,0.7,0.52,1.09,0.31
				c0.39-0.22,0.52-0.71,0.31-1.09l-6.57-11.79c-0.13-0.24-0.38-0.39-0.65-0.41c-0.27-0.02-0.54,0.11-0.7,0.33l-7.91,10.94
				c-0.09,0.13-0.14,0.27-0.15,0.42C706.55,216.45,706.67,216.72,706.9,216.88z"/>
		</g>
		<g>
			<path d="M645.83,283.81c0.29,0.33,0.26,0.84-0.08,1.13l-9.23,8.04l11.19,4.96c0.4,0.18,0.59,0.65,0.41,1.06
				c-0.18,0.4-0.66,0.58-1.06,0.41l-12.34-5.47c-0.25-0.11-0.43-0.34-0.47-0.61c-0.04-0.27,0.06-0.54,0.27-0.72l10.17-8.87
				c0.12-0.1,0.26-0.17,0.41-0.19C645.37,283.51,645.65,283.6,645.83,283.81z"/>
		</g>
	</g>
</g>
<circle class="st1" cx="574.34" cy="192.26" r="15.39"/>
<g class="st1">
	<g>
		<path class="st2" d="M601.03,277.34c-5.49-6.41-13.01-16.72-18.53-31c-4.64-11.98-6.33-22.76-6.92-30.68"/>
		<g>
			<path d="M584.23,225.88c-0.35,0.27-0.85,0.2-1.12-0.15l-7.46-9.71l-5.64,10.86c-0.2,0.39-0.69,0.55-1.08,0.34
				c-0.39-0.2-0.54-0.69-0.34-1.08l6.22-11.98c0.13-0.24,0.37-0.4,0.64-0.43c0.27-0.02,0.54,0.09,0.7,0.31l8.22,10.7
				c0.1,0.12,0.15,0.27,0.16,0.42C584.56,225.43,584.46,225.7,584.23,225.88z"/>
		</g>
	</g>
</g>
<circle class="st1" cx="645.93" cy="224.09" r="15.39"/>
<g class="st1">
	<g>
		<path class="st2" d="M650.72,202.7c0.98-2.65,5.23-13.21,16.88-19.42c10.93-5.83,21.52-4.18,26-3.08"/>
		<g>
			<path d="M681.11,185.03c-0.14-0.42,0.09-0.87,0.51-1.01l11.61-3.86l-8.41-8.89c-0.3-0.32-0.29-0.83,0.03-1.13
				c0.32-0.3,0.83-0.29,1.13,0.03l9.27,9.8c0.19,0.2,0.26,0.48,0.19,0.74c-0.07,0.27-0.26,0.48-0.52,0.56l-12.81,4.26
				c-0.15,0.05-0.3,0.05-0.45,0.02C681.42,185.49,681.2,185.3,681.11,185.03z"/>
		</g>
	</g>
</g>
<g class="st1">
	<g>
		<path class="st2" d="M595.93,178.77c3.64-1.81,9.52-3.9,16.39-2.93c12.23,1.74,22.72,12.54,26.27,27.35"/>
		<g>
			<path d="M609.17,180.76c0.05-0.44-0.28-0.83-0.72-0.88l-12.18-1.24l6.27-10.51c0.23-0.38,0.1-0.87-0.28-1.1
				c-0.38-0.23-0.87-0.1-1.1,0.28l-6.92,11.59c-0.14,0.23-0.15,0.53-0.03,0.77s0.36,0.41,0.63,0.44l13.43,1.37
				c0.16,0.02,0.31-0.01,0.44-0.08C608.97,181.27,609.14,181.04,609.17,180.76z"/>
		</g>
		<g>
			<path d="M628.63,194.26c0.31-0.31,0.82-0.32,1.13-0.01l8.72,8.59l4.1-11.53c0.15-0.42,0.61-0.63,1.02-0.49s0.63,0.61,0.49,1.02
				l-4.52,12.72c-0.09,0.26-0.31,0.45-0.58,0.51c-0.27,0.06-0.55-0.02-0.74-0.21l-9.61-9.47c-0.11-0.11-0.18-0.25-0.22-0.39
				C628.37,194.74,628.44,194.46,628.63,194.26z"/>
		</g>
	</g>
</g>
<circle class="st1" cx="708.73" cy="290.5" r="15.39"/>
<g class="st1">
	<g>
		<path class="st2" d="M723.2,276.26c4.22-6,11.41-17.94,13.9-34.71c2.69-18.12-1.47-32.73-4.31-40.34"/>
		<g>
			<path d="M743.59,209.01c-0.27,0.35-0.78,0.41-1.12,0.13l-9.62-7.56l-2.79,11.92c-0.1,0.43-0.53,0.7-0.96,0.6
				c-0.43-0.1-0.7-0.53-0.6-0.96l3.07-13.14c0.06-0.27,0.26-0.48,0.51-0.57c0.26-0.09,0.54-0.04,0.76,0.13l10.61,8.34
				c0.12,0.1,0.21,0.22,0.26,0.36C743.81,208.5,743.77,208.79,743.59,209.01z"/>
		</g>
	</g>
</g>
<circle class="st1" cx="648.03" cy="133.35" r="15.39"/>
<g class="st1">
	<g>
		<path class="st2" d="M624.55,131.92c-9.79,0.25-45.31,3.06-68.91,32.68c-3.86,4.84-21.29,26.73-17.91,56.34
			c3.29,28.79,24.98,53.79,55.33,64.89"/>
		<g>
			<path d="M613.44,124.52c-0.23,0.38-0.11,0.87,0.27,1.1l10.47,6.33l-10.17,6.81c-0.37,0.25-0.47,0.74-0.22,1.11
				c0.25,0.37,0.75,0.46,1.11,0.22l11.21-7.51c0.23-0.15,0.36-0.41,0.35-0.68c-0.01-0.27-0.15-0.52-0.39-0.67l-11.55-6.98
				c-0.13-0.08-0.28-0.12-0.43-0.11C613.84,124.14,613.59,124.27,613.44,124.52z"/>
		</g>
		<g>
			<path d="M580.13,289.09c-0.09-0.43,0.19-0.86,0.62-0.95l11.99-2.49l-7.32-9.81c-0.26-0.35-0.19-0.86,0.16-1.12
				c0.35-0.26,0.86-0.19,1.12,0.16l8.07,10.82c0.16,0.22,0.2,0.51,0.11,0.76c-0.1,0.26-0.32,0.44-0.59,0.5l-13.22,2.74
				c-0.15,0.03-0.31,0.02-0.45-0.04C580.39,289.58,580.19,289.37,580.13,289.09z"/>
		</g>
	</g>
</g>
<g class="st1">
	<g>
		<path class="st2" d="M625.24,272.82c4.49-9.54,8.97-19.08,13.46-28.63"/>
		<g>
			<path d="M641,257.36c-0.44,0.06-0.84-0.25-0.9-0.69l-1.56-12.14l-10.34,6.55c-0.37,0.24-0.87,0.13-1.1-0.25s-0.12-0.87,0.25-1.1
				l11.4-7.22c0.23-0.15,0.52-0.16,0.77-0.05c0.25,0.12,0.42,0.35,0.45,0.62l1.72,13.39c0.02,0.16-0.01,0.31-0.07,0.44
				C641.51,257.15,641.28,257.32,641,257.36z"/>
		</g>
	</g>
</g>
<g class="st1">
	<g>
		<path class="st2" d="M669.35,135.58c42.3-9.98,85.02,14.02,98.05,53.39c11.84,35.79-3.46,76.4-37.14,96.43"/>
		<g>
			<path d="M735.45,273.04c0.4,0.19,0.57,0.67,0.38,1.07l-5.28,11.04l12.24,0.12c0.44,0,0.8,0.37,0.79,0.81s-0.37,0.8-0.81,0.79
				l-13.5-0.13c-0.27,0-0.53-0.14-0.67-0.38c-0.14-0.23-0.16-0.52-0.04-0.77l5.82-12.18c0.07-0.14,0.17-0.26,0.3-0.33
				C734.9,272.94,735.19,272.92,735.45,273.04z"/>
		</g>
	</g>
</g>
<g class="st1">
	<g>
		<path class="st2" d="M560.35,204.94c-22.8,28.05-27.71,66.09-12.43,96.92c17.58,35.48,59.65,56.88,97.61,46.49
			c29.26-8.01,44.84-31.85,49.92-40.81"/>
		<g>
			<path d="M697.12,324.15c-0.55,0.03-1.02-0.39-1.06-0.94l-0.87-15.28l-13.47,7.25c-0.49,0.26-1.09,0.08-1.35-0.41
				c-0.26-0.49-0.07-1.09,0.41-1.35l14.86-7.99c0.3-0.16,0.66-0.16,0.96,0.01c0.3,0.17,0.49,0.47,0.51,0.82l0.96,16.84
				c0.01,0.2-0.04,0.38-0.13,0.54C697.78,323.93,697.47,324.13,697.12,324.15z"/>
		</g>
	</g>
</g>
<circle class="st3" cx="645.33" cy="230.26" r="2.83"/>
<circle class="st3" cx="652.63" cy="225.7" r="2.83"/>
<circle class="st3" cx="615.56" cy="283.85" r="2.83"/>
<circle class="st3" cx="623.38" cy="288.76" r="2.83"/>
<circle class="st3" cx="571.26" cy="201.05" r="2.83"/>
<circle class="st3" cx="579.64" cy="198.51" r="2.83"/>
<circle class="st3" cx="648.04" cy="143.08" r="2.83"/>
<circle class="st3" cx="654.03" cy="137.28" r="2.83"/>
<circle class="st3" cx="716.08" cy="195" r="2.83"/>
<circle class="st3" cx="711.29" cy="188.47" r="2.83"/>
<circle class="st3" cx="704.92" cy="282.15" r="2.83"/>
<circle class="st3" cx="701.32" cy="291.21" r="2.83"/>
<g class="st1">
	<g>
		<path class="st4" d="M581.97,522.52c26.25,2.13,52.14-7.3,69.59-26.42c14.6-16,19.49-34.62,20.57-49.88"/>
		<g>
			<polygon class="st5" points="583.52,543.55 552.73,515.16 592.7,502.68 			"/>
		</g>
		<g>
			<polygon class="st5" points="692.69,451.19 669.73,416.16 650.87,453.56 			"/>
		</g>
	</g>
</g>
<g class="st1">
	<path class="st3" d="M295.73,548.15c0.19-1.34,2.12-3.66,5.97-8.3c4.28-5.15,8.24-8.8,10.23-10.56
		c19.58-17.33,29.38-26.24,45.2-32.43c8.7-3.41,36.72-14.37,62.26-4.53c10.26,3.96,19.44,11.01,24.73,15.08
		c9.4,7.23,15.36,11.73,21.32,18.86c3.46,4.13,7.29,9.58,15.35,13.58c3.03,1.5,3.97,1.47,4.26,2.26
		c2.21,5.94-40.99,33.67-90.4,36.96C342.36,582.55,294.36,557.88,295.73,548.15z"/>
	<ellipse class="st6" cx="391.61" cy="517.54" rx="44.54" ry="42.53"/>
	<path d="M391.12,312.16l-185.04,306h370.07L391.12,312.16z M395.01,579.03c-52.3,3.47-100.3-21.2-98.93-30.92
		c0.19-1.34,2.12-3.66,5.97-8.3c4.28-5.15,8.24-8.8,10.23-10.56c19.58-17.33,29.38-26.24,45.2-32.43
		c8.7-3.41,36.72-14.37,62.26-4.53c10.26,3.96,19.44,11.01,24.73,15.08c9.4,7.23,15.36,11.73,21.32,18.86
		c3.46,4.13,7.29,9.58,15.35,13.58c3.03,1.5,3.97,1.47,4.26,2.26C487.62,548.02,444.42,575.75,395.01,579.03z"/>
	<ellipse class="st7" cx="391.61" cy="517.54" rx="24.5" ry="23.39"/>
</g>
<circle class="st0" cx="148.04" cy="237.77" r="148"/>
<circle class="st1" cx="191.53" cy="304.08" r="15.39"/>
<circle class="st1" cx="89.75" cy="200.49" r="15.39"/>
<path d="M177.01,298.97"/>
<g class="st1">
	<g>
		<path class="st2" d="M170.93,303.34c-9.44-0.98-35.39-5.3-57.06-27.42c-20.77-21.2-25.02-45.92-26.03-55.36"/>
		<g>
			<path d="M160.84,294.56c-0.27,0.35-0.22,0.85,0.13,1.12l9.6,7.6l-10.94,5.48c-0.4,0.2-0.56,0.68-0.36,1.07
				c0.2,0.39,0.68,0.55,1.07,0.36l12.07-6.05c0.24-0.12,0.41-0.36,0.44-0.63c0.03-0.27-0.09-0.54-0.3-0.71l-10.58-8.38
				c-0.12-0.1-0.27-0.15-0.41-0.17C161.29,294.23,161.01,294.34,160.84,294.56z"/>
		</g>
		<g>
			<path d="M96.65,230.61c-0.34,0.28-0.85,0.22-1.12-0.13l-7.63-9.57l-5.45,10.96c-0.2,0.4-0.68,0.56-1.07,0.36
				c-0.39-0.2-0.55-0.68-0.36-1.07l6.01-12.09c0.12-0.24,0.36-0.41,0.63-0.44c0.27-0.03,0.54,0.08,0.71,0.3l8.41,10.55
				c0.1,0.12,0.15,0.27,0.17,0.41C96.98,230.17,96.88,230.44,96.65,230.61z"/>
		</g>
	</g>
</g>
<circle class="st1" cx="191.26" cy="163.21" r="15.39"/>
<g class="st1">
	<g>
		<path class="st2" d="M105.09,186.14c6.65-5.2,17.27-12.26,31.78-17.15c12.17-4.11,23.02-5.32,30.95-5.57"/>
		<g>
			<path d="M157.24,171.61c-0.25-0.36-0.17-0.86,0.2-1.11l10.02-7.02l-10.6-6.11c-0.38-0.22-0.51-0.71-0.29-1.09
				c0.22-0.38,0.71-0.51,1.09-0.29l11.69,6.74c0.24,0.14,0.39,0.38,0.4,0.66c0.01,0.27-0.12,0.53-0.34,0.69l-11.05,7.75
				c-0.13,0.09-0.28,0.14-0.42,0.14C157.66,171.97,157.4,171.85,157.24,171.61z"/>
		</g>
	</g>
</g>
<circle class="st1" cx="156.31" cy="233.33" r="15.39"/>
<g class="st1">
	<g>
		<path class="st2" d="M177.48,239.05c2.6,1.09,12.97,5.8,18.66,17.72c5.34,11.18,3.23,21.68,1.93,26.11"/>
		<g>
			<path d="M193.8,270.19c0.42-0.12,0.87,0.13,0.99,0.55l3.35,11.77l9.25-8.01c0.33-0.29,0.84-0.25,1.13,0.08
				c0.29,0.33,0.25,0.84-0.08,1.13l-10.2,8.84c-0.21,0.18-0.49,0.24-0.75,0.16s-0.47-0.29-0.54-0.55l-3.69-12.98
				c-0.04-0.15-0.04-0.31,0-0.45C193.32,270.48,193.52,270.27,193.8,270.19z"/>
		</g>
	</g>
</g>
<g class="st1">
	<g>
		<path class="st2" d="M203.79,185.37c1.65,3.72,3.48,9.69,2.21,16.5c-2.27,12.14-13.52,22.15-28.47,25.05"/>
		<g>
			<path d="M201.22,198.51c0.44,0.06,0.84-0.24,0.91-0.68l1.77-12.11l10.22,6.73c0.37,0.24,0.87,0.14,1.11-0.23s0.14-0.87-0.23-1.11
				l-11.27-7.42c-0.23-0.15-0.52-0.17-0.77-0.06c-0.25,0.11-0.42,0.34-0.46,0.61l-1.96,13.35c-0.02,0.16,0,0.31,0.06,0.44
				C200.71,198.29,200.94,198.47,201.22,198.51z"/>
		</g>
		<g>
			<path d="M186.88,217.36c0.3,0.32,0.28,0.83-0.04,1.13l-8.96,8.33l11.34,4.6c0.41,0.17,0.61,0.63,0.44,1.04
				c-0.17,0.41-0.64,0.6-1.04,0.44l-12.51-5.07c-0.25-0.1-0.44-0.33-0.49-0.6c-0.05-0.27,0.04-0.54,0.24-0.73l9.88-9.19
				c0.12-0.11,0.25-0.17,0.4-0.2C186.41,217.07,186.68,217.15,186.88,217.36z"/>
		</g>
	</g>
</g>
<circle class="st1" cx="87.21" cy="293.16" r="15.39"/>
<g class="st1">
	<g>
		<path class="st2" d="M100.8,308.23c5.81,4.48,17.42,12.19,34.07,15.41c17.98,3.48,32.77-0.03,40.49-2.54"/>
		<g>
			<path d="M167.09,331.56c-0.33-0.29-0.37-0.79-0.08-1.13l7.98-9.28l-11.79-3.31c-0.43-0.12-0.67-0.56-0.55-0.99
				c0.12-0.42,0.56-0.67,0.99-0.55l12.99,3.65c0.26,0.07,0.47,0.28,0.55,0.54s0.02,0.55-0.16,0.75l-8.8,10.23
				c-0.1,0.12-0.23,0.2-0.37,0.24C167.59,331.8,167.31,331.75,167.09,331.56z"/>
		</g>
	</g>
</g>
<circle class="st1" cx="246.88" cy="239.41" r="15.39"/>
<g class="st1">
	<g>
		<path class="st2" d="M249.33,216.02c0.18-9.79-1.07-45.4-29.62-70.27c-4.67-4.07-25.77-22.44-55.5-20.37
			c-28.9,2.02-54.83,22.59-67.26,52.43"/>
		<g>
			<path d="M257.22,205.24c-0.37-0.25-0.86-0.15-1.11,0.22l-6.79,10.19l-6.36-10.46c-0.23-0.38-0.72-0.5-1.1-0.27
				c-0.38,0.23-0.49,0.73-0.27,1.1l7.01,11.53c0.14,0.23,0.39,0.38,0.67,0.38c0.27,0.01,0.53-0.13,0.68-0.36l7.48-11.23
				c0.09-0.13,0.13-0.28,0.13-0.43C257.58,205.66,257.45,205.4,257.22,205.24z"/>
		</g>
		<g>
			<path d="M94.26,164.75c0.44-0.07,0.85,0.23,0.92,0.66l1.96,12.08l10.12-6.88c0.37-0.25,0.86-0.15,1.11,0.21
				c0.25,0.37,0.15,0.86-0.21,1.11L97,179.52c-0.23,0.15-0.52,0.18-0.77,0.07c-0.25-0.11-0.43-0.34-0.47-0.61l-2.16-13.32
				c-0.02-0.16,0-0.31,0.05-0.44C93.76,164.98,93.98,164.79,94.26,164.75z"/>
		</g>
	</g>
</g>
<g class="st1">
	<g>
		<path class="st2" d="M108.54,210.53c9.34,4.9,18.67,9.8,28.01,14.7"/>
		<g>
			<path d="M123.29,226.95c-0.04-0.44,0.29-0.83,0.73-0.86l12.2-1.02l-6.09-10.62c-0.22-0.38-0.09-0.87,0.3-1.09
				c0.38-0.22,0.87-0.08,1.09,0.3l6.71,11.71c0.14,0.24,0.14,0.53,0.01,0.77c-0.13,0.24-0.37,0.4-0.64,0.43l-13.45,1.13
				c-0.16,0.01-0.31-0.02-0.44-0.09C123.48,227.46,123.32,227.23,123.29,226.95z"/>
		</g>
	</g>
</g>
<g class="st1">
	<g>
		<path class="st2" d="M243.71,260.62c8.12,42.7-17.74,84.33-57.64,95.61c-36.28,10.26-76.17-6.81-94.71-41.34"/>
		<g>
			<path d="M103.48,320.61c-0.21,0.39-0.69,0.54-1.08,0.33l-10.8-5.76l-0.65,12.22c-0.02,0.44-0.4,0.78-0.84,0.76
				s-0.78-0.4-0.76-0.84l0.72-13.48c0.01-0.27,0.17-0.52,0.41-0.65c0.24-0.13,0.53-0.14,0.77-0.01l11.91,6.35
				c0.14,0.07,0.25,0.18,0.32,0.31C103.6,320.07,103.62,320.36,103.48,320.61z"/>
		</g>
	</g>
</g>
<g class="st1">
	<g>
		<path class="st2" d="M179.2,148.67c-27.02-24-64.81-30.58-96.28-16.68c-36.22,16-59.44,57.1-50.73,95.47
			c6.72,29.58,29.85,46.19,38.58,51.66"/>
		<g>
			<path d="M54.11,280.08c-0.01-0.55,0.44-1.01,0.99-1.01l15.3-0.2l-6.65-13.78c-0.24-0.5-0.03-1.1,0.47-1.34
				c0.5-0.24,1.1-0.03,1.34,0.47l7.33,15.19c0.15,0.31,0.13,0.67-0.05,0.96s-0.5,0.47-0.84,0.47l-16.87,0.22
				c-0.2,0-0.38-0.05-0.54-0.15C54.3,280.75,54.11,280.44,54.11,280.08z"/>
		</g>
	</g>
</g>
<circle class="st3" cx="150.18" cy="232.46" r="2.83"/>
<circle class="st3" cx="154.41" cy="239.96" r="2.83"/>
<circle class="st3" cx="97.94" cy="200.37" r="2.83"/>
<circle class="st3" cx="92.7" cy="207.96" r="2.83"/>
<circle class="st3" cx="182.61" cy="159.74" r="2.83"/>
<circle class="st3" cx="184.77" cy="168.23" r="2.83"/>
<circle class="st3" cx="237.15" cy="239" r="2.83"/>
<circle class="st3" cx="242.68" cy="245.23" r="2.83"/>
<circle class="st3" cx="182.3" cy="304.69" r="2.83"/>
<circle class="st3" cx="189.03" cy="300.19" r="2.83"/>
<circle class="st3" cx="95.72" cy="289.71" r="2.83"/>
<circle class="st3" cx="86.82" cy="285.73" r="2.83"/>
<g class="st1">
	<g>
		<path class="st4" d="M203.65,522.51c-26.25,2.13-52.14-7.3-69.59-26.42c-14.6-16-19.49-34.62-20.57-49.88"/>
		<g>
			<polygon class="st5" points="192.91,502.67 232.89,515.15 202.09,543.54 			"/>
		</g>
		<g>
			<polygon class="st5" points="134.74,453.55 115.89,416.15 92.92,451.18 			"/>
		</g>
	</g>
</g>
<g class="st1">
	<g>
		<path class="st8" d="M264.19,69.36c20.92-23.16,65.18-61.4,131.54-64.2c73.15-3.09,123.41,39,146.25,63.44"/>
		<g>
			<polygon points="278.71,75.59 250.73,86.16 255.56,56.64 			"/>
		</g>
		<g>
			<polygon points="527.56,75.09 555.73,85.16 550.37,55.73 			"/>
		</g>
	</g>
</g>
</svg>
