<?xml version="1.0" encoding="utf-8"?>
<!-- Generator: Adobe Illustrator 24.1.2, SVG Export Plug-In . SVG Version: 6.00 Build 0)  -->
<svg version="1.1" id="Layer_1" xmlns="http://www.w3.org/2000/svg" xmlns:xlink="http://www.w3.org/1999/xlink" x="0px" y="0px"
	 viewBox="0 0 235.63 232.57" style="enable-background:new 0 0 235.63 232.57;" xml:space="preserve">
<style type="text/css">
	.st0{opacity:0.8;}
	.st1{fill:none;stroke:#000000;stroke-width:2;stroke-miterlimit:10;}
	.st2{fill:#FFFFFF;}
</style>
<path d="M62.6,66.48"/>
<g class="st0">
	<g>
		<path class="st1" d="M66.89,60.35c9.23-2.2,35.15-6.73,62.92,6.95c26.63,13.11,38.83,35.02,42.92,43.6"/>
		<g>
			<path d="M79.32,65.28c0.14-0.42-0.08-0.87-0.5-1.02l-11.57-3.99l8.51-8.8c0.31-0.32,0.3-0.83-0.02-1.13
				c-0.32-0.31-0.83-0.3-1.13,0.02l-9.38,9.71c-0.19,0.2-0.27,0.48-0.2,0.74s0.26,0.48,0.52,0.57l12.76,4.39
				c0.15,0.05,0.3,0.06,0.45,0.02C79.01,65.74,79.23,65.55,79.32,65.28z"/>
		</g>
		<g>
			<path d="M161.08,104.33c0.23-0.37,0.73-0.49,1.1-0.25l10.37,6.5l1.5-12.15c0.05-0.44,0.45-0.75,0.89-0.7
				c0.44,0.05,0.75,0.46,0.7,0.89l-1.66,13.39c-0.03,0.27-0.2,0.51-0.45,0.62c-0.25,0.12-0.54,0.1-0.77-0.04l-11.44-7.17
				c-0.13-0.08-0.23-0.2-0.3-0.33C160.92,104.86,160.93,104.57,161.08,104.33z"/>
		</g>
	</g>
</g>
<g class="st0">
	<g>
		<path class="st1" d="M167.87,149.08c-4.55,7.11-12.23,17.29-24.29,26.72c-10.12,7.91-19.95,12.66-27.35,15.52"/>
		<g>
			<path d="M123.49,180.08c0.36,0.26,0.44,0.76,0.18,1.12l-7.13,9.95l12.03,2.25c0.43,0.08,0.72,0.5,0.64,0.93
				c-0.08,0.43-0.5,0.72-0.93,0.64l-13.27-2.48c-0.27-0.05-0.49-0.23-0.6-0.49c-0.1-0.25-0.07-0.54,0.09-0.76l7.86-10.97
				c0.09-0.13,0.22-0.22,0.35-0.28C122.97,179.89,123.26,179.91,123.49,180.08z"/>
		</g>
	</g>
</g>
<g class="st0">
	<g>
		<path class="st1" d="M82.03,123.17c-2.82-0.17-14.16-1.18-23.48-10.53c-8.75-8.77-10.24-19.38-10.48-23.99"/>
		<g>
			<path d="M56.31,99.2c-0.36,0.26-0.86,0.17-1.12-0.19l-7.06-10l-6.07,10.63c-0.22,0.38-0.71,0.52-1.09,0.3
				c-0.38-0.22-0.51-0.71-0.3-1.09l6.7-11.72c0.14-0.24,0.38-0.39,0.66-0.4s0.53,0.11,0.69,0.34l7.79,11.02
				c0.09,0.13,0.14,0.28,0.15,0.42C56.66,98.77,56.54,99.04,56.31,99.2z"/>
		</g>
	</g>
</g>
<g class="st0">
	<g>
		<path class="st1" d="M75.01,182.54c-2.79-2.96-6.5-7.98-7.55-14.83c-1.88-12.21,5.41-25.38,18.56-33.07"/>
		<g>
			<path d="M73.08,169.29c-0.43,0.08-0.72,0.5-0.63,0.94l2.34,12.01l-11.88-2.96c-0.43-0.11-0.86,0.15-0.97,0.58
				s0.16,0.86,0.58,0.97l13.1,3.26c0.27,0.07,0.55-0.01,0.74-0.2c0.2-0.19,0.29-0.47,0.23-0.73l-2.58-13.25
				c-0.03-0.15-0.1-0.29-0.2-0.4C73.63,169.33,73.35,169.24,73.08,169.29z"/>
		</g>
		<g>
			<path d="M80.36,146.75c-0.39-0.2-0.54-0.69-0.34-1.08l5.69-10.84l-12.23-0.58c-0.44-0.02-0.78-0.4-0.76-0.84
				c0.02-0.44,0.4-0.78,0.84-0.76l13.48,0.64c0.27,0.01,0.52,0.16,0.66,0.4s0.14,0.53,0.01,0.77l-6.28,11.95
				c-0.07,0.14-0.18,0.25-0.31,0.32C80.9,146.87,80.61,146.88,80.36,146.75z"/>
		</g>
	</g>
</g>
<g class="st0">
	<g>
		<path class="st1" d="M131.43,32.47c-6.97-2.3-20.48-5.72-37.25-3.24c-18.12,2.68-30.9,10.89-37.36,15.82"/>
		<g>
			<path d="M61.15,32.45c0.41,0.16,0.61,0.62,0.45,1.04l-4.45,11.4l12.21-0.79c0.44-0.03,0.82,0.31,0.85,0.75
				c0.03,0.44-0.31,0.82-0.75,0.85l-13.47,0.87c-0.27,0.02-0.54-0.11-0.7-0.33c-0.16-0.22-0.2-0.51-0.1-0.76l4.91-12.57
				c0.06-0.15,0.15-0.27,0.27-0.35C60.6,32.39,60.89,32.35,61.15,32.45z"/>
		</g>
	</g>
</g>
<g class="st0">
	<g>
		<path class="st1" d="M21.88,168.73c3.08,9.3,16.06,42.48,51.25,56.47c5.75,2.29,31.75,12.63,59.11,0.81
			c26.6-11.49,44.24-39.5,46.07-71.76"/>
		<g>
			<path d="M18.01,181.51c0.43,0.11,0.86-0.15,0.97-0.58l3.03-11.86l9.47,7.76c0.34,0.28,0.85,0.23,1.13-0.11
				c0.28-0.34,0.23-0.85-0.11-1.13l-10.44-8.55c-0.21-0.17-0.5-0.23-0.76-0.14c-0.26,0.09-0.46,0.3-0.53,0.56l-3.34,13.08
				c-0.04,0.15-0.03,0.31,0.02,0.45C17.53,181.23,17.74,181.44,18.01,181.51z"/>
		</g>
		<g>
			<path d="M185.18,165.67c-0.39,0.21-0.87,0.07-1.09-0.32l-5.85-10.75l-7.27,9.85c-0.26,0.36-0.76,0.43-1.12,0.17
				c-0.35-0.26-0.43-0.77-0.17-1.12l8.01-10.86c0.16-0.22,0.43-0.34,0.7-0.32s0.52,0.18,0.65,0.42l6.45,11.85
				c0.08,0.14,0.11,0.29,0.1,0.44C185.57,165.29,185.43,165.54,185.18,165.67z"/>
		</g>
	</g>
</g>
<g class="st0">
	<g>
		<path class="st1" d="M156.53,127.22c-10.43-1.53-20.86-3.05-31.3-4.58"/>
		<g>
			<path d="M137.17,116.62c0.18,0.4,0,0.88-0.4,1.06l-11.17,5.01l9.26,8c0.33,0.29,0.37,0.8,0.08,1.13
				c-0.29,0.33-0.8,0.37-1.13,0.08l-10.21-8.82c-0.21-0.18-0.31-0.45-0.27-0.72c0.04-0.27,0.21-0.5,0.46-0.61l12.31-5.53
				c0.14-0.06,0.3-0.08,0.44-0.06C136.81,116.2,137.05,116.36,137.17,116.62z"/>
		</g>
	</g>
</g>
<g class="st0">
	<g>
		<path class="st1" d="M12.39,124.79C-9.43,87.2,1.16,39.35,35.06,15.47c30.82-21.71,74.12-18.83,103.06,7.59"/>
		<g>
			<path d="M124.79,21.69c0.07-0.44,0.48-0.74,0.91-0.67l12.1,1.85l-3.44-11.75c-0.12-0.42,0.12-0.87,0.54-0.99
				c0.42-0.12,0.87,0.12,0.99,0.54l3.79,12.95c0.08,0.26,0.01,0.55-0.17,0.75c-0.18,0.21-0.45,0.31-0.72,0.26l-13.34-2.04
				c-0.16-0.02-0.29-0.09-0.41-0.19C124.86,22.23,124.75,21.97,124.79,21.69z"/>
		</g>
	</g>
</g>
<g class="st0">
	<g>
		<path class="st1" d="M110.37,209c33.45,13.68,71.29,7.36,96.36-16.2c28.86-27.11,37.14-73.58,16.2-106.89
			c-16.15-25.68-43.48-33.68-53.53-35.94"/>
		<g>
			<path d="M184.82,43.55c0.19,0.52-0.08,1.09-0.6,1.28l-14.37,5.26l10.84,10.79c0.39,0.39,0.39,1.02,0,1.41
				c-0.39,0.39-1.03,0.39-1.41,0l-11.96-11.9c-0.24-0.24-0.34-0.59-0.27-0.92c0.07-0.33,0.31-0.61,0.63-0.72l15.84-5.8
				c0.18-0.07,0.38-0.08,0.56-0.04C184.41,42.99,184.69,43.22,184.82,43.55z"/>
		</g>
	</g>
</g>
<g>
	<circle cx="97.08" cy="113.39" r="1.92"/>
	<circle cx="110.95" cy="125.07" r="1.92"/>
	<path d="M98.95,113.85"/>
	<g>
		<path d="M110.83,122.58c-0.3-1.47-1.2-4.27-3.84-6.51c-2.75-2.32-5.78-2.7-7.34-2.71l0-0.25c1.59,0.02,4.69,0.4,7.5,2.77
			c2.71,2.29,3.62,5.15,3.93,6.65L110.83,122.58z"/>
		<g>
			<path d="M101.01,114.21c0.03-0.05,0.02-0.11-0.03-0.14l-1.28-0.83l1.3-0.81c0.05-0.03,0.06-0.09,0.03-0.14
				c-0.03-0.05-0.09-0.06-0.14-0.03l-1.43,0.89c-0.03,0.02-0.05,0.05-0.05,0.08s0.02,0.07,0.05,0.08l1.41,0.92
				c0.02,0.01,0.04,0.02,0.05,0.02C100.96,114.25,100.99,114.24,101.01,114.21z"/>
		</g>
		<g>
			<path d="M109.74,121.41c0.04-0.04,0.1-0.04,0.14,0l1.06,1.1l0.55-1.43c0.02-0.05,0.08-0.08,0.13-0.06
				c0.05,0.02,0.08,0.08,0.06,0.13l-0.61,1.57c-0.01,0.03-0.04,0.06-0.07,0.06c-0.03,0.01-0.07,0-0.09-0.03l-1.17-1.21
				c-0.01-0.01-0.02-0.03-0.03-0.05C109.7,121.47,109.71,121.43,109.74,121.41z"/>
		</g>
	</g>
	<circle cx="98.77" cy="130.9" r="1.92"/>
	<g>
		<path d="M101.69,130.72l-0.03-0.25c1.3-0.16,2.56-0.51,3.75-1.05c1.37-0.61,2.62-1.45,3.72-2.48l0.17,0.18
			c-1.11,1.05-2.39,1.91-3.79,2.53C104.3,130.2,103.01,130.55,101.69,130.72z"/>
		<g>
			<path d="M102.9,129.45c0.04,0.04,0.03,0.11-0.01,0.14l-1.16,0.99l1.39,0.64c0.05,0.02,0.07,0.08,0.05,0.13
				c-0.02,0.05-0.08,0.07-0.13,0.05l-1.53-0.7c-0.03-0.01-0.05-0.04-0.06-0.08c0-0.03,0.01-0.07,0.03-0.09l1.28-1.09
				c0.01-0.01,0.03-0.02,0.05-0.02C102.84,129.41,102.87,129.43,102.9,129.45z"/>
		</g>
	</g>
	<circle cx="102.29" cy="121.77" r="1.92"/>
	<g>
		<path d="M99.55,121.42c-0.51-0.16-1.78-0.68-2.6-2.04c-0.79-1.32-0.69-2.64-0.56-3.31l0.25,0.05c-0.12,0.63-0.22,1.89,0.53,3.14
			c0.77,1.29,1.98,1.78,2.46,1.93L99.55,121.42z"/>
		<g>
			<path d="M97.2,117.63c-0.05,0.02-0.11-0.01-0.13-0.06l-0.55-1.42l-1.06,1.1c-0.04,0.04-0.1,0.04-0.14,0
				c-0.04-0.04-0.04-0.1,0-0.14l1.16-1.22c0.02-0.02,0.06-0.04,0.09-0.03c0.03,0.01,0.06,0.03,0.07,0.06l0.61,1.57
				c0.01,0.02,0.01,0.04,0,0.06C97.25,117.58,97.23,117.61,97.2,117.63z"/>
		</g>
	</g>
	<g>
		<path d="M96.84,128.35c-0.26-0.47-0.56-1.22-0.48-2.1c0.14-1.58,1.48-3.01,3.34-3.56l0.07,0.24c-1.75,0.51-3.02,1.86-3.16,3.34
			c-0.07,0.81,0.21,1.51,0.45,1.95L96.84,128.35z"/>
		<g>
			<path d="M97.11,126.62c-0.06,0-0.1,0.04-0.1,0.09l-0.08,1.53l-1.35-0.72c-0.05-0.03-0.11-0.01-0.14,0.04s-0.01,0.11,0.04,0.14
				l1.49,0.79c0.03,0.02,0.07,0.02,0.1,0c0.03-0.02,0.05-0.05,0.05-0.08l0.09-1.68c0-0.02,0-0.04-0.01-0.05
				C97.18,126.65,97.15,126.63,97.11,126.62z"/>
		</g>
		<g>
			<path d="M98.68,124.11c-0.04-0.04-0.04-0.1-0.01-0.14l1.02-1.14l-1.46-0.44c-0.05-0.02-0.08-0.07-0.07-0.12
				c0.02-0.05,0.07-0.08,0.12-0.07l1.61,0.48c0.03,0.01,0.06,0.04,0.07,0.07c0.01,0.03,0,0.07-0.02,0.09l-1.12,1.26
				c-0.01,0.01-0.03,0.02-0.05,0.03C98.74,124.14,98.7,124.14,98.68,124.11z"/>
		</g>
	</g>
	<circle cx="110.18" cy="113.52" r="1.92"/>
	<g>
		<path d="M98.94,111.19l-0.1-0.23c1.11-0.48,2.9-1.01,5.07-0.8c1.58,0.15,3.12,0.68,4.47,1.54l-0.13,0.21
			c-1.32-0.83-2.82-1.35-4.36-1.5C101.77,110.21,100.03,110.72,98.94,111.19z"/>
		<g>
			<path d="M99.8,109.68c0.05,0.03,0.06,0.09,0.02,0.14l-0.88,1.25l1.5,0.27c0.05,0.01,0.09,0.06,0.08,0.12
				c-0.01,0.05-0.06,0.09-0.12,0.08l-1.66-0.3c-0.03-0.01-0.06-0.03-0.07-0.06c-0.01-0.03-0.01-0.07,0.01-0.1l0.97-1.38
				c0.01-0.02,0.03-0.03,0.04-0.03C99.73,109.66,99.77,109.66,99.8,109.68z"/>
		</g>
	</g>
	<circle cx="90.96" cy="122.07" r="1.92"/>
	<g>
		<path d="M99.04,135.26c-1.26-0.31-2.5-0.9-3.68-1.75c-3.84-2.76-4.46-7.19-4.56-8.48l0.25-0.02c0.1,1.27,0.7,5.6,4.46,8.3
			c2.24,1.61,4.68,2.25,7.05,1.86c3.52-0.58,6.45-3.35,7.65-7.22l0.24,0.07c-1.23,3.96-4.24,6.8-7.85,7.39
			C101.42,135.6,100.22,135.55,99.04,135.26z"/>
		<g>
			<path d="M90.07,126.44c0.05,0.03,0.11,0.01,0.14-0.04l0.72-1.35l0.91,1.23c0.03,0.04,0.1,0.05,0.14,0.02
				c0.04-0.03,0.05-0.1,0.02-0.14L91,124.81c-0.02-0.03-0.05-0.04-0.09-0.04s-0.06,0.02-0.08,0.05l-0.8,1.48
				c-0.01,0.02-0.01,0.04-0.01,0.05C90.02,126.4,90.04,126.43,90.07,126.44z"/>
		</g>
		<g>
			<path d="M110.81,129.57c-0.05,0.01-0.11-0.02-0.12-0.07l-0.39-1.48l-1.18,0.97c-0.04,0.04-0.11,0.03-0.14-0.01
				c-0.04-0.04-0.03-0.11,0.01-0.14l1.3-1.07c0.03-0.02,0.06-0.03,0.09-0.02c0.03,0.01,0.06,0.04,0.07,0.07l0.42,1.63
				c0,0.02,0,0.04,0,0.06C110.87,129.53,110.84,129.56,110.81,129.57z"/>
		</g>
	</g>
	<g>
		<rect x="106.54" y="121.32" transform="matrix(0.3795 -0.9252 0.9252 0.3795 -47.8838 175.1898)" width="0.25" height="3.95"/>
		<g>
			<path d="M106.47,122.18c0.01,0.05-0.03,0.11-0.08,0.12l-1.5,0.27l0.88,1.25c0.03,0.05,0.02,0.11-0.02,0.14
				c-0.05,0.03-0.11,0.02-0.14-0.02l-0.97-1.38c-0.02-0.03-0.02-0.06-0.01-0.1c0.01-0.03,0.04-0.05,0.07-0.06l1.66-0.3
				c0.02,0,0.04,0,0.06,0.01C106.44,122.11,106.46,122.14,106.47,122.18z"/>
		</g>
	</g>
	<g>
		<path d="M90.98,119.44c-1.51-5.21,1.18-10.8,6.12-12.72c4.47-1.73,9.69-0.02,12.41,4.08l-0.21,0.14c-2.66-4-7.75-5.67-12.11-3.98
			c-4.82,1.87-7.45,7.32-5.97,12.41L90.98,119.44z"/>
		<g>
			<path d="M107.83,110.3c0.02-0.05,0.08-0.07,0.13-0.05l1.41,0.59l-0.06-1.53c0-0.06,0.04-0.1,0.1-0.1c0.06,0,0.1,0.04,0.1,0.1
				l0.07,1.68c0,0.03-0.01,0.07-0.04,0.09c-0.03,0.02-0.06,0.02-0.1,0.01l-1.56-0.65c-0.02-0.01-0.03-0.02-0.04-0.04
				C107.83,110.37,107.82,110.33,107.83,110.3z"/>
		</g>
	</g>
	<g>
		<path d="M104.56,134.64c-1.48-0.37-2.91-1.03-4.2-1.97l0.15-0.2c3.61,2.64,8.33,3.01,12.03,0.94c2.09-1.17,3.77-3.06,4.73-5.33
			c0.98-2.3,1.12-4.79,0.4-6.99c-1.14-3.48-4.11-5.28-5.34-5.9l0.11-0.22c1.25,0.63,4.29,2.48,5.47,6.04
			c0.74,2.26,0.6,4.81-0.4,7.17c-0.99,2.32-2.71,4.25-4.84,5.45C110.2,134.99,107.3,135.32,104.56,134.64z"/>
		<g>
			<path d="M114.45,114.76c0.01,0.07-0.04,0.13-0.11,0.14l-1.9,0.2l0.99,1.64c0.04,0.06,0.02,0.14-0.04,0.17
				c-0.06,0.04-0.14,0.02-0.17-0.04l-1.09-1.8c-0.02-0.04-0.02-0.08,0-0.12c0.02-0.04,0.06-0.06,0.1-0.07l2.09-0.23
				c0.02,0,0.05,0,0.07,0.01C114.42,114.68,114.44,114.71,114.45,114.76z"/>
		</g>
	</g>
	<circle class="st2" cx="103.06" cy="121.81" r="0.35"/>
	<circle class="st2" cx="102.45" cy="120.92" r="0.35"/>
	<circle class="st2" cx="109.93" cy="125.18" r="0.35"/>
	<circle class="st2" cx="110.5" cy="124.18" r="0.35"/>
	<circle class="st2" cx="99.88" cy="131.23" r="0.35"/>
	<circle class="st2" cx="99.51" cy="130.2" r="0.35"/>
	<circle class="st2" cx="92.17" cy="122.01" r="0.35"/>
	<circle class="st2" cx="91.41" cy="121.3" r="0.35"/>
	<circle class="st2" cx="98.22" cy="113.2" r="0.35"/>
	<circle class="st2" cx="97.44" cy="113.84" r="0.35"/>
	<circle class="st2" cx="109.16" cy="114.05" r="0.35"/>
	<circle class="st2" cx="110.31" cy="114.44" r="0.35"/>
</g>
<g>
	<circle cx="158.57" cy="34.64" r="1.92"/>
	<circle cx="144.75" cy="46.39" r="1.92"/>
	<path d="M157.8,36.4"/>
	<g>
		<path d="M147.23,46.68c1.5-0.05,4.41-0.47,7.05-2.72c2.75-2.33,3.61-5.25,3.88-6.79l0.25,0.04c-0.28,1.57-1.16,4.56-3.97,6.93
			c-2.7,2.29-5.67,2.72-7.21,2.78L147.23,46.68z"/>
		<g>
			<path d="M157.11,38.38c0.04,0.04,0.1,0.03,0.14-0.01l1.03-1.13l0.58,1.41c0.02,0.05,0.08,0.08,0.13,0.05
				c0.05-0.02,0.07-0.08,0.05-0.13l-0.64-1.56c-0.01-0.03-0.04-0.05-0.07-0.06s-0.07,0.01-0.09,0.03l-1.14,1.24
				c-0.01,0.01-0.02,0.03-0.02,0.05C157.07,38.32,157.08,38.35,157.11,38.38z"/>
		</g>
		<g>
			<path d="M148.56,45.8c0.03,0.05,0.02,0.11-0.03,0.14l-1.26,0.86l1.32,0.78c0.05,0.03,0.06,0.09,0.04,0.14
				c-0.03,0.05-0.09,0.06-0.14,0.04l-1.45-0.86c-0.03-0.02-0.05-0.05-0.05-0.08c0-0.03,0.02-0.07,0.04-0.09l1.39-0.95
				c0.02-0.01,0.03-0.02,0.05-0.02C148.51,45.75,148.54,45.77,148.56,45.8z"/>
		</g>
	</g>
	<circle cx="141.02" cy="33.41" r="1.92"/>
	<g>
		<path d="M140.71,36.33l0.25,0.01c-0.05,1.31,0.09,2.61,0.41,3.87c0.38,1.45,0.99,2.82,1.83,4.07L143,44.42
			c-0.86-1.27-1.49-2.67-1.87-4.15C140.79,38.98,140.65,37.66,140.71,36.33z"/>
		<g>
			<path d="M141.76,37.72c-0.05,0.03-0.11,0.01-0.14-0.03l-0.79-1.31l-0.86,1.27c-0.03,0.05-0.09,0.06-0.14,0.03
				s-0.06-0.09-0.03-0.14l0.94-1.4c0.02-0.03,0.05-0.04,0.09-0.04s0.07,0.02,0.08,0.05l0.87,1.45c0.01,0.02,0.01,0.04,0.01,0.05
				C141.81,37.67,141.79,37.71,141.76,37.72z"/>
		</g>
	</g>
	<circle cx="149.44" cy="38.39" r="1.92"/>
	<g>
		<path d="M150.23,35.75c0.24-0.48,0.96-1.65,2.44-2.23c1.43-0.56,2.72-0.25,3.36-0.01l-0.09,0.23c-0.61-0.23-1.82-0.53-3.18,0.01
			c-1.4,0.55-2.08,1.66-2.31,2.11L150.23,35.75z"/>
		<g>
			<path d="M154.37,34.05c-0.01-0.05,0.02-0.11,0.08-0.12l1.5-0.31l-0.92-1.22c-0.03-0.04-0.02-0.11,0.02-0.14s0.11-0.02,0.14,0.02
				l1.01,1.35c0.02,0.03,0.03,0.06,0.01,0.1c-0.01,0.03-0.04,0.06-0.07,0.06l-1.65,0.34c-0.02,0-0.04,0-0.06,0
				C154.4,34.11,154.37,34.09,154.37,34.05z"/>
		</g>
	</g>
	<g>
		<path d="M143.85,31.93c0.51-0.18,1.3-0.35,2.15-0.13c1.54,0.4,2.73,1.96,2.96,3.88l-0.25,0.03c-0.22-1.81-1.33-3.29-2.77-3.67
			c-0.79-0.21-1.52-0.05-2,0.12L143.85,31.93z"/>
		<g>
			<path d="M145.5,32.49c0.01-0.05-0.02-0.11-0.08-0.12l-1.49-0.33l0.93-1.21c0.03-0.04,0.03-0.11-0.02-0.14s-0.11-0.02-0.14,0.02
				l-1.03,1.34c-0.02,0.03-0.03,0.06-0.01,0.1s0.04,0.06,0.07,0.06l1.65,0.36c0.02,0,0.04,0,0.06,0
				C145.47,32.55,145.5,32.52,145.5,32.49z"/>
		</g>
		<g>
			<path d="M147.72,34.44c0.04-0.03,0.11-0.03,0.14,0.02l0.96,1.19l0.67-1.37c0.02-0.05,0.08-0.07,0.13-0.05s0.07,0.08,0.05,0.13
				l-0.74,1.51c-0.02,0.03-0.04,0.05-0.08,0.06c-0.03,0-0.07-0.01-0.09-0.04l-1.06-1.31c-0.01-0.02-0.02-0.03-0.02-0.05
				C147.68,34.5,147.69,34.46,147.72,34.44z"/>
		</g>
	</g>
	<circle cx="156.27" cy="47.54" r="1.92"/>
	<g>
		<path d="M160.42,36.84l0.24-0.06c0.29,1.18,0.52,3.02-0.05,5.13c-0.41,1.53-1.19,2.97-2.25,4.16l-0.19-0.17
			c1.04-1.16,1.8-2.56,2.2-4.05C160.93,39.79,160.7,37.99,160.42,36.84z"/>
		<g>
			<path d="M161.77,37.93c-0.04,0.04-0.1,0.04-0.14,0l-1.08-1.08l-0.52,1.44c-0.02,0.05-0.08,0.08-0.13,0.06
				c-0.05-0.02-0.08-0.08-0.06-0.13l0.57-1.59c0.01-0.03,0.04-0.06,0.07-0.06c0.03-0.01,0.07,0,0.09,0.03l1.2,1.19
				c0.01,0.01,0.02,0.03,0.03,0.05C161.8,37.87,161.8,37.91,161.77,37.93z"/>
		</g>
	</g>
	<circle cx="151.01" cy="27.17" r="1.92"/>
	<g>
		<path d="M136.67,32.96c0.52-1.19,1.3-2.32,2.34-3.34c3.36-3.33,7.83-3.21,9.12-3.1l-0.02,0.25c-1.26-0.11-5.64-0.23-8.92,3.02
			c-1.96,1.94-2.99,4.24-3,6.64c-0.01,3.57,2.24,6.91,5.86,8.74l-0.11,0.22c-3.71-1.87-6-5.3-6-8.96
			C135.94,35.25,136.19,34.08,136.67,32.96z"/>
		<g>
			<path d="M146.84,25.57c-0.03,0.04-0.03,0.11,0.02,0.14l1.21,0.94l-1.36,0.7c-0.05,0.03-0.07,0.09-0.04,0.13
				c0.03,0.05,0.09,0.07,0.13,0.04l1.5-0.77c0.03-0.02,0.05-0.05,0.05-0.08c0-0.03-0.01-0.07-0.04-0.09l-1.33-1.03
				c-0.02-0.01-0.03-0.02-0.05-0.02C146.9,25.53,146.87,25.54,146.84,25.57z"/>
		</g>
		<g>
			<path d="M140.34,45.51c0-0.05,0.04-0.1,0.09-0.11l1.52-0.14l-0.77-1.32c-0.03-0.05-0.01-0.11,0.04-0.14
				c0.05-0.03,0.11-0.01,0.14,0.04l0.85,1.46c0.02,0.03,0.02,0.07,0,0.1c-0.02,0.03-0.05,0.05-0.08,0.05l-1.68,0.15
				c-0.02,0-0.04,0-0.05-0.01C140.36,45.57,140.34,45.54,140.34,45.51z"/>
		</g>
	</g>
	<g>
		<rect x="145.23" y="42.34" transform="matrix(0.5271 -0.8498 0.8498 0.5271 33.5303 145.1763)" width="3.95" height="0.25"/>
		<g>
			<path d="M148.35,42.45c-0.06,0-0.1-0.04-0.1-0.1l-0.02-1.53l-1.38,0.66c-0.05,0.02-0.11,0-0.13-0.05c-0.02-0.05,0-0.11,0.05-0.13
				l1.52-0.73c0.03-0.01,0.07-0.01,0.1,0.01c0.03,0.02,0.05,0.05,0.05,0.08l0.02,1.69c0,0.02-0.01,0.04-0.01,0.05
				C148.41,42.43,148.38,42.45,148.35,42.45z"/>
		</g>
	</g>
	<g>
		<path d="M153.61,27.63c5.39-0.63,10.46,2.95,11.53,8.14c0.97,4.69-1.58,9.56-6.07,11.57l-0.1-0.23c4.38-1.96,6.87-6.71,5.93-11.29
			c-1.05-5.07-5.99-8.55-11.26-7.94L153.61,27.63z"/>
		<g>
			<path d="M159.84,45.76c0.05,0.03,0.06,0.09,0.03,0.14l-0.81,1.29l1.52,0.19c0.05,0.01,0.09,0.06,0.09,0.11
				c-0.01,0.05-0.06,0.09-0.11,0.09l-1.67-0.21c-0.03,0-0.06-0.03-0.08-0.06s-0.01-0.07,0.01-0.1l0.9-1.43
				c0.01-0.02,0.03-0.03,0.04-0.04C159.77,45.74,159.81,45.74,159.84,45.76z"/>
		</g>
	</g>
	<g>
		<path d="M136.37,38.51c0.61-1.4,1.49-2.7,2.64-3.81l0.17,0.18c-3.2,3.12-4.34,7.72-2.91,11.71c0.81,2.25,2.4,4.22,4.47,5.55
			c2.11,1.35,4.53,1.9,6.83,1.55c3.62-0.55,5.89-3.19,6.7-4.29l0.2,0.15c-0.83,1.13-3.15,3.83-6.86,4.39c-2.35,0.36-4.84-0.2-7-1.58
			c-2.12-1.36-3.75-3.37-4.57-5.67C135.09,44.01,135.25,41.1,136.37,38.51z"/>
		<g>
			<path d="M154.34,51.54c-0.07,0-0.12-0.06-0.12-0.13l0.11-1.91l-1.78,0.7c-0.06,0.03-0.14-0.01-0.16-0.07
				c-0.03-0.06,0.01-0.14,0.07-0.16l1.96-0.78c0.04-0.02,0.08-0.01,0.12,0.01c0.03,0.03,0.05,0.07,0.05,0.11l-0.12,2.1
				c0,0.02-0.01,0.05-0.02,0.07C154.43,51.52,154.39,51.55,154.34,51.54z"/>
		</g>
	</g>
	<circle class="st2" cx="149.27" cy="39.15" r="0.35"/>
	<circle class="st2" cx="150.25" cy="38.69" r="0.35"/>
	<circle class="st2" cx="144.81" cy="45.37" r="0.35"/>
	<circle class="st2" cx="145.71" cy="46.09" r="0.35"/>
	<circle class="st2" cx="140.51" cy="34.46" r="0.35"/>
	<circle class="st2" cx="141.58" cy="34.26" r="0.35"/>
	<circle class="st2" cx="150.87" cy="28.37" r="0.35"/>
	<circle class="st2" cx="151.69" cy="27.74" r="0.35"/>
	<circle class="st2" cx="158.56" cy="35.8" r="0.35"/>
	<circle class="st2" cx="158.06" cy="34.92" r="0.35"/>
	<circle class="st2" cx="155.92" cy="46.45" r="0.35"/>
	<circle class="st2" cx="155.34" cy="47.52" r="0.35"/>
</g>
<g>
	<circle cx="24.88" cy="137.8" r="1.92"/>
	<circle cx="16.7" cy="153.99" r="1.92"/>
	<path d="M24.86,139.72"/>
	<g>
		<path d="M19.1,153.3c1.36-0.63,3.88-2.15,5.45-5.24c1.63-3.21,1.29-6.24,0.95-7.76l0.24-0.06c0.35,1.55,0.69,4.65-0.97,7.93
			c-1.6,3.16-4.18,4.71-5.57,5.35L19.1,153.3z"/>
		<g>
			<path d="M24.98,141.81c0.05,0.02,0.11-0.01,0.13-0.06l0.51-1.44l1.09,1.08c0.04,0.04,0.1,0.04,0.14,0c0.04-0.04,0.04-0.1,0-0.14
				l-1.2-1.19c-0.02-0.02-0.06-0.03-0.09-0.03c-0.03,0.01-0.06,0.03-0.07,0.06l-0.57,1.59c-0.01,0.02-0.01,0.04,0,0.06
				C24.93,141.77,24.95,141.8,24.98,141.81z"/>
		</g>
		<g>
			<path d="M19.99,151.96c0.05,0.03,0.06,0.09,0.03,0.14l-0.83,1.29l1.51,0.21c0.05,0.01,0.09,0.06,0.09,0.11
				c-0.01,0.05-0.06,0.09-0.11,0.09l-1.67-0.23c-0.03,0-0.06-0.03-0.08-0.06c-0.01-0.03-0.01-0.07,0.01-0.1l0.91-1.42
				c0.01-0.02,0.03-0.03,0.04-0.04C19.92,151.94,19.96,151.95,19.99,151.96z"/>
		</g>
	</g>
	<circle cx="8.23" cy="143.47" r="1.92"/>
	<g>
		<path d="M9.07,146.28l0.23-0.09c0.46,1.22,1.09,2.37,1.88,3.41c0.91,1.19,2.01,2.22,3.27,3.04l-0.14,0.21
			c-1.28-0.84-2.4-1.88-3.33-3.1C10.18,148.69,9.54,147.53,9.07,146.28z"/>
		<g>
			<path d="M10.58,147.16c-0.03,0.04-0.1,0.05-0.14,0.02l-1.23-0.9l-0.3,1.5c-0.01,0.05-0.06,0.09-0.12,0.08
				c-0.05-0.01-0.09-0.06-0.08-0.12l0.33-1.65c0.01-0.03,0.03-0.06,0.06-0.07s0.07-0.01,0.1,0.01l1.36,1
				c0.02,0.01,0.03,0.03,0.03,0.04C10.61,147.09,10.6,147.13,10.58,147.16z"/>
		</g>
	</g>
	<circle cx="17.92" cy="144.8" r="1.92"/>
	<g>
		<path d="M17.63,142.06c0.04-0.53,0.25-1.89,1.39-3c1.1-1.07,2.41-1.28,3.09-1.31l0.01,0.25c-0.65,0.03-1.89,0.22-2.93,1.24
			c-1.08,1.05-1.28,2.33-1.31,2.84L17.63,142.06z"/>
		<g>
			<path d="M20.78,138.89c-0.03-0.05-0.02-0.11,0.03-0.14l1.26-0.87l-1.32-0.77c-0.05-0.03-0.06-0.09-0.04-0.14
				c0.03-0.05,0.09-0.06,0.14-0.04l1.45,0.85c0.03,0.02,0.05,0.05,0.05,0.08c0,0.03-0.02,0.07-0.04,0.09l-1.39,0.96
				c-0.02,0.01-0.03,0.02-0.05,0.02C20.83,138.93,20.8,138.92,20.78,138.89z"/>
		</g>
	</g>
	<g>
		<path d="M10.26,141.01c0.4-0.37,1.06-0.83,1.93-0.95c1.57-0.22,3.27,0.75,4.23,2.43l-0.22,0.12c-0.9-1.59-2.5-2.51-3.98-2.3
			c-0.81,0.12-1.42,0.55-1.8,0.89L10.26,141.01z"/>
		<g>
			<path d="M12,140.88c-0.01-0.05-0.06-0.09-0.12-0.08l-1.5,0.27l0.39-1.48c0.01-0.05-0.02-0.11-0.07-0.12
				c-0.05-0.01-0.11,0.02-0.12,0.07l-0.43,1.63c-0.01,0.03,0,0.07,0.02,0.09c0.02,0.03,0.06,0.04,0.09,0.03l1.66-0.3
				c0.02,0,0.04-0.01,0.05-0.02C12,140.95,12.01,140.91,12,140.88z"/>
		</g>
		<g>
			<path d="M14.81,141.82c0.03-0.05,0.09-0.07,0.14-0.04l1.34,0.73l0.09-1.53c0-0.06,0.05-0.1,0.11-0.09c0.06,0,0.1,0.05,0.09,0.11
				l-0.1,1.68c0,0.03-0.02,0.06-0.05,0.08s-0.07,0.02-0.1,0l-1.48-0.8c-0.02-0.01-0.03-0.02-0.04-0.04
				C14.79,141.89,14.79,141.85,14.81,141.82z"/>
		</g>
	</g>
	<circle cx="27.77" cy="150.58" r="1.92"/>
	<g>
		<path d="M27.44,139.11l0.2-0.15c0.73,0.97,1.65,2.59,1.94,4.75c0.21,1.57,0.05,3.2-0.46,4.7l-0.24-0.08
			c0.5-1.47,0.66-3.06,0.45-4.59C29.05,141.63,28.15,140.06,27.44,139.11z"/>
		<g>
			<path d="M29.11,139.59c-0.02,0.05-0.08,0.08-0.13,0.06l-1.42-0.57l0.08,1.53c0,0.06-0.04,0.1-0.09,0.11
				c-0.06,0-0.1-0.04-0.11-0.09l-0.09-1.68c0-0.03,0.01-0.07,0.04-0.09c0.03-0.02,0.06-0.02,0.1-0.01l1.56,0.63
				c0.02,0.01,0.03,0.02,0.04,0.03C29.12,139.52,29.12,139.56,29.11,139.59z"/>
		</g>
	</g>
	<circle cx="15.02" cy="133.84" r="1.92"/>
	<g>
		<path d="M4.05,144.75c0.02-1.3,0.3-2.64,0.86-3.99c1.8-4.37,5.97-6,7.21-6.39l0.08,0.24c-1.21,0.38-5.29,1.97-7.05,6.25
			c-1.05,2.55-1.11,5.07-0.19,7.29c1.38,3.29,4.74,5.5,8.79,5.78l-0.02,0.25c-4.14-0.28-7.59-2.56-9-5.93
			C4.26,147.13,4.04,145.96,4.05,144.75z"/>
		<g>
			<path d="M10.56,133.99c-0.01,0.05,0.02,0.11,0.07,0.12l1.48,0.4l-0.98,1.17c-0.04,0.04-0.03,0.11,0.01,0.14s0.11,0.03,0.14-0.01
				l1.08-1.29c0.02-0.03,0.03-0.06,0.02-0.09c-0.01-0.03-0.04-0.06-0.07-0.07l-1.63-0.44c-0.02-0.01-0.04,0-0.06,0
				C10.59,133.93,10.57,133.95,10.56,133.99z"/>
		</g>
		<g>
			<path d="M12.29,154.88c-0.03-0.05-0.01-0.11,0.04-0.14l1.35-0.72l-1.22-0.92c-0.04-0.03-0.05-0.1-0.02-0.14
				c0.03-0.04,0.1-0.05,0.14-0.02l1.34,1.02c0.03,0.02,0.04,0.05,0.04,0.09s-0.02,0.06-0.05,0.08l-1.49,0.79
				c-0.02,0.01-0.04,0.01-0.05,0.01C12.34,154.93,12.31,154.92,12.29,154.88z"/>
		</g>
	</g>
	<g>
		<rect x="15.47" y="149.29" transform="matrix(0.1564 -0.9877 0.9877 0.1564 -132.8566 143.2744)" width="3.95" height="0.25"/>
		<g>
			<path d="M18.49,148.96c-0.05,0.02-0.11,0-0.13-0.05l-0.61-1.4l-1.01,1.15c-0.04,0.04-0.1,0.05-0.14,0.01
				c-0.04-0.04-0.04-0.1-0.01-0.14l1.12-1.26c0.02-0.03,0.06-0.04,0.09-0.03c0.03,0.01,0.06,0.03,0.08,0.06l0.67,1.55
				c0.01,0.02,0.01,0.04,0.01,0.06C18.54,148.92,18.52,148.95,18.49,148.96z"/>
		</g>
	</g>
	<g>
		<path d="M17.59,133.26c4.73-2.67,10.78-1.34,13.78,3.03c2.71,3.95,2.25,9.42-1.11,13.01l-0.18-0.17c3.28-3.51,3.74-8.85,1.09-12.7
			c-2.93-4.26-8.84-5.56-13.45-2.95L17.59,133.26z"/>
		<g>
			<path d="M30.36,147.55c0.05,0.01,0.09,0.06,0.08,0.11l-0.25,1.51l1.47-0.41c0.05-0.01,0.11,0.02,0.12,0.07
				c0.01,0.05-0.02,0.11-0.07,0.12l-1.62,0.45c-0.03,0.01-0.07,0-0.09-0.02c-0.03-0.02-0.04-0.06-0.03-0.09l0.27-1.66
				c0-0.02,0.01-0.04,0.02-0.05C30.29,147.56,30.33,147.55,30.36,147.55z"/>
		</g>
	</g>
	<g>
		<path d="M5.92,149.97c0.02-1.52,0.33-3.07,0.95-4.54l0.23,0.1c-1.74,4.12-1.01,8.8,1.86,11.92c1.62,1.76,3.85,2.96,6.27,3.38
			c2.47,0.42,4.92-0.01,6.89-1.22c3.12-1.91,4.19-5.22,4.51-6.55l0.24,0.06c-0.32,1.36-1.42,4.75-4.62,6.71
			c-2.03,1.24-4.54,1.69-7.07,1.26c-2.48-0.43-4.76-1.65-6.42-3.46C6.87,155.54,5.89,152.79,5.92,149.97z"/>
		<g>
			<path d="M27.54,155.02c-0.06,0.02-0.14-0.01-0.16-0.08l-0.64-1.8l-1.36,1.34c-0.05,0.05-0.13,0.05-0.18,0
				c-0.05-0.05-0.05-0.13,0-0.18l1.5-1.48c0.03-0.03,0.07-0.04,0.12-0.03c0.04,0.01,0.08,0.04,0.09,0.08l0.7,1.99
				c0.01,0.02,0.01,0.05,0,0.07C27.61,154.97,27.59,155,27.54,155.02z"/>
		</g>
	</g>
	<circle class="st2" cx="18.06" cy="145.56" r="0.35"/>
	<circle class="st2" cx="18.78" cy="144.76" r="0.35"/>
	<circle class="st2" cx="16.36" cy="153.02" r="0.35"/>
	<circle class="st2" cx="17.47" cy="153.34" r="0.35"/>
	<circle class="st2" cx="8.16" cy="144.63" r="0.35"/>
	<circle class="st2" cx="9.08" cy="144.04" r="0.35"/>
	<circle class="st2" cx="15.36" cy="135.01" r="0.35"/>
	<circle class="st2" cx="15.87" cy="134.1" r="0.35"/>
	<circle class="st2" cx="25.32" cy="138.87" r="0.35"/>
	<circle class="st2" cx="24.52" cy="138.25" r="0.35"/>
	<circle class="st2" cx="27.02" cy="149.71" r="0.35"/>
	<circle class="st2" cx="26.9" cy="150.92" r="0.35"/>
</g>
<g>
	<circle cx="35.57" cy="70.7" r="1.92"/>
	<circle cx="49.93" cy="59.62" r="1.92"/>
	<path d="M36.42,68.98"/>
	<g>
		<path d="M47.46,59.21c-1.5-0.02-4.43,0.27-7.17,2.38c-2.85,2.2-3.86,5.08-4.2,6.6l-0.24-0.06c0.35-1.55,1.38-4.5,4.29-6.74
			c2.81-2.16,5.8-2.45,7.33-2.43L47.46,59.21z"/>
		<g>
			<path d="M37.21,67.04c-0.04-0.04-0.1-0.04-0.14,0l-1.08,1.08l-0.52-1.44c-0.02-0.05-0.08-0.08-0.13-0.06
				c-0.05,0.02-0.08,0.08-0.06,0.13l0.57,1.59c0.01,0.03,0.04,0.06,0.07,0.06s0.07,0,0.09-0.03l1.2-1.19
				c0.01-0.01,0.02-0.03,0.03-0.05C37.24,67.1,37.23,67.06,37.21,67.04z"/>
		</g>
		<g>
			<path d="M46.09,60.03c-0.03-0.05-0.01-0.11,0.03-0.14l1.3-0.8l-1.28-0.84c-0.05-0.03-0.06-0.09-0.03-0.14s0.09-0.06,0.14-0.03
				l1.41,0.92c0.03,0.02,0.05,0.05,0.05,0.08c0,0.03-0.02,0.07-0.05,0.08l-1.43,0.89c-0.02,0.01-0.04,0.02-0.05,0.01
				C46.14,60.08,46.11,60.06,46.09,60.03z"/>
		</g>
	</g>
	<circle cx="53.04" cy="72.76" r="1.92"/>
	<g>
		<path d="M53.49,69.86l-0.25-0.02c0.12-1.3,0.04-2.61-0.23-3.88c-0.31-1.47-0.86-2.87-1.64-4.16l0.21-0.13
			c0.79,1.31,1.36,2.74,1.67,4.23C53.53,67.21,53.61,68.54,53.49,69.86z"/>
		<g>
			<path d="M52.5,68.42c0.05-0.03,0.11-0.01,0.14,0.04l0.72,1.35l0.92-1.22c0.03-0.04,0.1-0.05,0.14-0.02
				c0.04,0.03,0.05,0.1,0.02,0.14l-1.01,1.35c-0.02,0.03-0.05,0.04-0.09,0.04s-0.06-0.02-0.08-0.05l-0.8-1.49
				c-0.01-0.02-0.01-0.04-0.01-0.05C52.45,68.47,52.47,68.44,52.5,68.42z"/>
		</g>
	</g>
	<circle cx="44.87" cy="67.39" r="1.92"/>
	<g>
		<path d="M43.95,69.99c-0.26,0.46-1.04,1.6-2.54,2.11c-1.46,0.49-2.73,0.12-3.36-0.15l0.1-0.23c0.59,0.25,1.8,0.61,3.18,0.14
			c1.42-0.48,2.16-1.56,2.41-1.99L43.95,69.99z"/>
		<g>
			<path d="M39.74,71.49c0.01,0.05-0.03,0.11-0.08,0.11l-1.51,0.24L39,73.11c0.03,0.05,0.02,0.11-0.03,0.14
				c-0.05,0.03-0.11,0.02-0.14-0.03l-0.94-1.4c-0.02-0.03-0.02-0.06-0.01-0.1s0.04-0.05,0.08-0.06l1.66-0.26
				c0.02,0,0.04,0,0.06,0.01C39.71,71.43,39.73,71.45,39.74,71.49z"/>
		</g>
	</g>
	<g>
		<path d="M50.14,74.11c-0.52,0.16-1.31,0.29-2.15,0.03c-1.52-0.48-2.63-2.09-2.77-4.01l0.25-0.02c0.13,1.82,1.17,3.35,2.6,3.79
			c0.78,0.24,1.52,0.12,2-0.03L50.14,74.11z"/>
		<g>
			<path d="M48.52,73.47c-0.01,0.05,0.02,0.11,0.07,0.12l1.48,0.4l-0.99,1.17c-0.04,0.04-0.03,0.11,0.01,0.14
				c0.04,0.04,0.11,0.03,0.14-0.01l1.09-1.29c0.02-0.03,0.03-0.06,0.02-0.09c-0.01-0.03-0.04-0.06-0.07-0.07l-1.63-0.44
				c-0.02-0.01-0.04,0-0.06,0C48.55,73.41,48.53,73.44,48.52,73.47z"/>
		</g>
		<g>
			<path d="M46.39,71.42c-0.04,0.03-0.11,0.02-0.14-0.02l-0.9-1.24l-0.74,1.34c-0.03,0.05-0.09,0.07-0.14,0.04
				c-0.05-0.03-0.07-0.09-0.04-0.14l0.81-1.48c0.02-0.03,0.05-0.05,0.08-0.05c0.03,0,0.07,0.01,0.09,0.04l0.99,1.36
				c0.01,0.02,0.02,0.03,0.02,0.05C46.43,71.36,46.42,71.39,46.39,71.42z"/>
		</g>
	</g>
	<circle cx="38.47" cy="57.93" r="1.92"/>
	<g>
		<path d="M33.82,68.42l-0.25,0.05c-0.23-1.19-0.38-3.05,0.29-5.12c0.48-1.51,1.33-2.91,2.45-4.04l0.18,0.17
			c-1.09,1.11-1.92,2.48-2.39,3.95C33.45,65.45,33.59,67.26,33.82,68.42z"/>
		<g>
			<path d="M32.52,67.26c0.04-0.04,0.1-0.03,0.14,0.01l1.03,1.13l0.59-1.41c0.02-0.05,0.08-0.08,0.13-0.05
				c0.05,0.02,0.07,0.08,0.05,0.13l-0.65,1.56c-0.01,0.03-0.04,0.05-0.08,0.06c-0.03,0.01-0.07-0.01-0.09-0.03l-1.14-1.24
				c-0.01-0.01-0.02-0.03-0.02-0.05C32.49,67.32,32.5,67.29,32.52,67.26z"/>
		</g>
	</g>
	<circle cx="42.77" cy="78.53" r="1.92"/>
	<g>
		<path d="M57.36,73.41c-0.57,1.16-1.41,2.25-2.49,3.23c-3.51,3.17-7.97,2.84-9.25,2.66l0.03-0.25c1.26,0.17,5.62,0.5,9.05-2.6
			c2.05-1.85,3.19-4.09,3.31-6.49c0.18-3.56-1.91-7.01-5.44-9l0.12-0.22c3.61,2.04,5.75,5.58,5.56,9.23
			C58.2,71.17,57.89,72.32,57.36,73.41z"/>
		<g>
			<path d="M46.85,80.32c0.04-0.04,0.03-0.11-0.01-0.14l-1.16-0.99l1.39-0.63c0.05-0.02,0.07-0.08,0.05-0.13
				c-0.02-0.05-0.08-0.07-0.13-0.05l-1.53,0.7c-0.03,0.01-0.05,0.04-0.06,0.08c0,0.03,0.01,0.07,0.03,0.09l1.28,1.09
				c0.01,0.01,0.03,0.02,0.05,0.02C46.79,80.36,46.83,80.34,46.85,80.32z"/>
		</g>
		<g>
			<path d="M54.29,60.71c0,0.06-0.04,0.1-0.1,0.1l-1.53,0.06l0.7,1.36c0.03,0.05,0.01,0.11-0.04,0.13
				c-0.05,0.03-0.11,0.01-0.13-0.04l-0.78-1.5c-0.02-0.03-0.01-0.07,0-0.1c0.02-0.03,0.05-0.05,0.08-0.05l1.68-0.07
				c0.02,0,0.04,0,0.05,0.01C54.27,60.65,54.29,60.68,54.29,60.71z"/>
		</g>
	</g>
	<g>
		<rect x="45.31" y="63.3" transform="matrix(0.5668 -0.8239 0.8239 0.5668 -31.7734 66.4359)" width="3.95" height="0.25"/>
		<g>
			<path d="M46.15,63.39c0.06,0,0.1,0.05,0.1,0.1l-0.05,1.53l1.41-0.6c0.05-0.02,0.11,0,0.13,0.05s0,0.11-0.05,0.13l-1.55,0.66
				c-0.03,0.01-0.07,0.01-0.1-0.01s-0.04-0.05-0.04-0.09l0.06-1.68c0-0.02,0.01-0.04,0.02-0.05C46.08,63.4,46.11,63.39,46.15,63.39z
				"/>
		</g>
	</g>
	<g>
		<path d="M40.19,77.94c-5.42,0.37-10.31-3.44-11.13-8.67c-0.75-4.73,2.03-9.47,6.61-11.27l0.09,0.23
			c-4.47,1.75-7.18,6.37-6.46,10.99c0.81,5.11,5.58,8.83,10.87,8.46L40.19,77.94z"/>
		<g>
			<path d="M34.83,59.54c-0.05-0.03-0.06-0.09-0.02-0.14l0.87-1.25l-1.51-0.26c-0.05-0.01-0.09-0.06-0.08-0.12
				c0.01-0.05,0.06-0.09,0.12-0.08l1.66,0.29c0.03,0.01,0.06,0.03,0.08,0.06c0.01,0.03,0.01,0.07-0.01,0.1l-0.96,1.38
				c-0.01,0.02-0.03,0.03-0.04,0.03C34.89,59.56,34.86,59.56,34.83,59.54z"/>
		</g>
	</g>
	<g>
		<path d="M57.92,67.89c-0.67,1.37-1.62,2.62-2.82,3.68l-0.17-0.19c3.34-2.96,4.7-7.5,3.46-11.56c-0.7-2.29-2.19-4.33-4.2-5.75
			c-2.04-1.45-4.44-2.11-6.75-1.87c-3.64,0.38-6.03,2.9-6.89,3.97l-0.19-0.16c0.88-1.09,3.33-3.67,7.06-4.06
			c2.37-0.25,4.82,0.43,6.92,1.91c2.06,1.45,3.58,3.54,4.3,5.88C59.47,62.45,59.17,65.36,57.92,67.89z"/>
		<g>
			<path d="M40.59,54.02c0.07,0.01,0.12,0.07,0.11,0.14l-0.2,1.9l1.81-0.62c0.07-0.02,0.14,0.01,0.16,0.08
				c0.02,0.07-0.01,0.14-0.08,0.16l-1.99,0.68c-0.04,0.01-0.09,0.01-0.12-0.02c-0.03-0.03-0.05-0.07-0.05-0.11l0.22-2.1
				c0-0.02,0.01-0.05,0.03-0.06C40.5,54.03,40.54,54.01,40.59,54.02z"/>
		</g>
	</g>
	<circle class="st2" cx="45.06" cy="66.64" r="0.35"/>
	<circle class="st2" cx="44.07" cy="67.05" r="0.35"/>
	<circle class="st2" cx="49.82" cy="60.64" r="0.35"/>
	<circle class="st2" cx="48.96" cy="59.88" r="0.35"/>
	<circle class="st2" cx="53.6" cy="71.74" r="0.35"/>
	<circle class="st2" cx="52.52" cy="71.88" r="0.35"/>
	<circle class="st2" cx="42.96" cy="77.33" r="0.35"/>
	<circle class="st2" cx="42.11" cy="77.92" r="0.35"/>
	<circle class="st2" cx="35.63" cy="69.55" r="0.35"/>
	<circle class="st2" cx="36.09" cy="70.45" r="0.35"/>
	<circle class="st2" cx="38.77" cy="59.04" r="0.35"/>
	<circle class="st2" cx="39.4" cy="57.99" r="0.35"/>
</g>
<g>
	<circle cx="88.88" cy="206.76" r="1.92"/>
	<circle cx="94.32" cy="189.46" r="1.92"/>
	<path d="M88.59,204.86"/>
	<g>
		<path d="M92.07,190.53c-1.24,0.84-3.48,2.75-4.53,6.05c-1.09,3.43-0.26,6.37,0.32,7.81l-0.23,0.09c-0.6-1.48-1.44-4.48-0.33-7.98
			c1.07-3.38,3.36-5.32,4.62-6.18L92.07,190.53z"/>
		<g>
			<path d="M88.12,202.82c-0.05-0.01-0.11,0.03-0.12,0.08l-0.27,1.5l-1.25-0.88c-0.05-0.03-0.11-0.02-0.14,0.02
				c-0.03,0.04-0.02,0.11,0.02,0.14l1.37,0.98c0.03,0.02,0.06,0.02,0.1,0.01c0.03-0.01,0.05-0.04,0.06-0.07l0.3-1.66
				c0-0.02,0-0.04-0.01-0.06C88.19,202.85,88.16,202.83,88.12,202.82z"/>
		</g>
		<g>
			<path d="M91.41,191.99c-0.05-0.02-0.07-0.08-0.05-0.13l0.61-1.4l-1.53,0.04c-0.06,0-0.1-0.04-0.1-0.1c0-0.06,0.04-0.1,0.1-0.1
				l1.68-0.05c0.03,0,0.07,0.02,0.09,0.04c0.02,0.03,0.02,0.06,0.01,0.1l-0.67,1.55c-0.01,0.02-0.02,0.03-0.04,0.04
				C91.48,192,91.44,192.01,91.41,191.99z"/>
		</g>
	</g>
	<circle cx="104.39" cy="198.47" r="1.92"/>
	<g>
		<path d="M103.1,195.83l-0.22,0.12c-0.65-1.13-1.46-2.16-2.41-3.06c-1.09-1.03-2.34-1.86-3.72-2.47l0.1-0.23
			c1.4,0.62,2.68,1.47,3.79,2.52C101.61,193.63,102.44,194.68,103.1,195.83z"/>
		<g>
			<path d="M101.47,195.21c0.02-0.05,0.09-0.07,0.13-0.04l1.36,0.69l0.05-1.53c0-0.06,0.05-0.1,0.1-0.1c0.06,0,0.1,0.05,0.1,0.1
				l-0.06,1.68c0,0.03-0.02,0.07-0.05,0.08s-0.07,0.02-0.1,0l-1.5-0.76c-0.02-0.01-0.03-0.02-0.04-0.04
				C101.45,195.28,101.45,195.24,101.47,195.21z"/>
		</g>
	</g>
	<circle cx="94.61" cy="198.73" r="1.92"/>
	<g>
		<path d="M95.34,201.39c0.05,0.53,0.06,1.91-0.88,3.18c-0.91,1.24-2.17,1.66-2.84,1.79l-0.05-0.24c0.63-0.13,1.83-0.53,2.69-1.7
			c0.89-1.21,0.88-2.51,0.83-3.01L95.34,201.39z"/>
		<g>
			<path d="M92.75,205.02c0.04,0.04,0.04,0.1,0,0.14l-1.1,1.06l1.43,0.55c0.05,0.02,0.08,0.08,0.06,0.13
				c-0.02,0.05-0.08,0.08-0.13,0.06l-1.57-0.61c-0.03-0.01-0.06-0.04-0.06-0.07c-0.01-0.03,0-0.07,0.03-0.09l1.21-1.17
				c0.01-0.01,0.03-0.02,0.05-0.03C92.69,204.99,92.72,205,92.75,205.02z"/>
		</g>
	</g>
	<g>
		<path d="M102.78,201.22c-0.33,0.43-0.91,0.99-1.75,1.25c-1.52,0.48-3.35-0.21-4.57-1.71l0.19-0.16c1.15,1.42,2.88,2.07,4.3,1.63
			c0.78-0.24,1.32-0.77,1.63-1.17L102.78,201.22z"/>
		<g>
			<path d="M101.08,201.64c0.02,0.05,0.08,0.08,0.13,0.06l1.44-0.52l-0.14,1.52c-0.01,0.05,0.04,0.1,0.09,0.11
				c0.05,0.01,0.1-0.04,0.11-0.09l0.16-1.68c0-0.03-0.01-0.07-0.04-0.09s-0.06-0.03-0.09-0.02l-1.59,0.57
				c-0.02,0.01-0.03,0.02-0.05,0.03C101.08,201.57,101.07,201.6,101.08,201.64z"/>
		</g>
		<g>
			<path d="M98.16,201.16c-0.02,0.05-0.07,0.08-0.13,0.06l-1.44-0.5l0.16,1.52c0.01,0.05-0.03,0.1-0.09,0.11
				c-0.05,0.01-0.1-0.03-0.11-0.09l-0.17-1.68c0-0.03,0.01-0.07,0.04-0.09c0.03-0.02,0.06-0.03,0.09-0.02l1.59,0.55
				c0.02,0.01,0.03,0.02,0.05,0.03C98.17,201.09,98.17,201.13,98.16,201.16z"/>
		</g>
	</g>
	<circle cx="83.96" cy="194.62" r="1.92"/>
	<g>
		<path d="M86.14,205.89l-0.17,0.18c-0.87-0.84-2.05-2.28-2.69-4.37c-0.47-1.51-0.57-3.15-0.3-4.72l0.25,0.04
			c-0.26,1.53-0.16,3.13,0.3,4.6C84.14,203.66,85.29,205.07,86.14,205.89z"/>
		<g>
			<path d="M84.41,205.68c0.01-0.05,0.07-0.09,0.12-0.08l1.49,0.34l-0.33-1.49c-0.01-0.05,0.02-0.11,0.08-0.12
				c0.05-0.01,0.11,0.02,0.12,0.08l0.36,1.65c0.01,0.03,0,0.07-0.03,0.09c-0.02,0.02-0.06,0.03-0.09,0.03l-1.64-0.37
				c-0.02,0-0.04-0.01-0.05-0.03C84.42,205.75,84.4,205.72,84.41,205.68z"/>
		</g>
	</g>
	<circle cx="99.25" cy="209.07" r="1.92"/>
	<g>
		<path d="M108.31,196.53c0.2,1.28,0.13,2.65-0.2,4.07c-1.07,4.61-4.92,6.88-6.07,7.47l-0.11-0.22c1.13-0.58,4.9-2.8,5.94-7.31
			c0.62-2.69,0.28-5.18-1-7.22c-1.89-3.02-5.57-4.66-9.61-4.28l-0.02-0.25c4.13-0.39,7.9,1.29,9.84,4.4
			C107.71,194.21,108.12,195.33,108.31,196.53z"/>
		<g>
			<path d="M103.63,208.2c0.01-0.05-0.03-0.1-0.09-0.11l-1.52-0.15l0.78-1.31c0.03-0.05,0.01-0.11-0.03-0.14
				c-0.05-0.03-0.11-0.01-0.14,0.03l-0.86,1.45c-0.02,0.03-0.02,0.07,0,0.1s0.05,0.05,0.08,0.05l1.68,0.17c0.02,0,0.04,0,0.05-0.01
				C103.6,208.27,103.62,208.24,103.63,208.2z"/>
		</g>
		<g>
			<path d="M98.53,187.86c0.03,0.04,0.02,0.11-0.02,0.14l-1.22,0.92l1.35,0.71c0.05,0.03,0.07,0.09,0.04,0.13
				c-0.03,0.05-0.09,0.07-0.13,0.04l-1.49-0.78c-0.03-0.02-0.05-0.05-0.05-0.08c0-0.03,0.01-0.07,0.04-0.09l1.34-1.02
				c0.02-0.01,0.03-0.02,0.05-0.02C98.47,187.82,98.51,187.83,98.53,187.86z"/>
		</g>
	</g>
	<g>
		<rect x="94.21" y="192.12" transform="matrix(1 -5.834967e-03 5.834967e-03 1 -1.1309 0.5537)" width="0.25" height="3.95"/>
		<g>
			<path d="M93.38,194.71c0.05-0.03,0.11-0.02,0.14,0.03l0.83,1.28l0.81-1.29c0.03-0.05,0.09-0.06,0.14-0.03
				c0.05,0.03,0.06,0.09,0.03,0.14l-0.9,1.43c-0.02,0.03-0.05,0.05-0.08,0.05c-0.03,0-0.07-0.02-0.08-0.05l-0.91-1.42
				c-0.01-0.02-0.02-0.04-0.02-0.05C93.33,194.76,93.35,194.73,93.38,194.71z"/>
		</g>
	</g>
	<g>
		<path d="M96.81,210.06c-4.23,3.4-10.42,3.07-14.09-0.75c-3.32-3.46-3.75-8.94-1.01-13.02l0.21,0.14
			c-2.67,3.99-2.25,9.34,0.99,12.71c3.58,3.73,9.62,4.05,13.76,0.73L96.81,210.06z"/>
		<g>
			<path d="M81.89,198.03c-0.06,0-0.1-0.04-0.1-0.1l0-1.53l-1.39,0.65c-0.05,0.02-0.11,0-0.13-0.05c-0.02-0.05,0-0.11,0.05-0.13
				l1.53-0.71c0.03-0.01,0.07-0.01,0.1,0.01c0.03,0.02,0.05,0.05,0.05,0.08l0,1.69c0,0.02-0.01,0.04-0.02,0.05
				C81.95,198.01,81.92,198.03,81.89,198.03z"/>
		</g>
	</g>
	<g>
		<path d="M105.61,191.68c0.23,1.5,0.17,3.08-0.2,4.63l-0.24-0.06c1.05-4.34-0.43-8.84-3.77-11.47c-1.88-1.48-4.28-2.3-6.74-2.32
			c-2.5-0.02-4.85,0.81-6.6,2.32c-2.77,2.39-3.29,5.83-3.39,7.2l-0.25-0.02c0.1-1.4,0.64-4.92,3.47-7.37
			c1.8-1.56,4.21-2.4,6.77-2.39c2.52,0.02,4.97,0.86,6.89,2.37C103.77,186.33,105.19,188.89,105.61,191.68z"/>
		<g>
			<path d="M83.46,190.2c0.06-0.03,0.14-0.01,0.17,0.05l0.92,1.67l1.13-1.54c0.04-0.06,0.12-0.07,0.17-0.03
				c0.06,0.04,0.07,0.12,0.03,0.17l-1.24,1.7c-0.03,0.03-0.07,0.05-0.11,0.05c-0.04,0-0.08-0.03-0.1-0.06l-1.01-1.85
				c-0.01-0.02-0.02-0.05-0.02-0.07C83.4,190.26,83.42,190.23,83.46,190.2z"/>
		</g>
	</g>
	<circle class="st2" cx="94.35" cy="198" r="0.35"/>
	<circle class="st2" cx="93.77" cy="198.91" r="0.35"/>
	<circle class="st2" cx="94.82" cy="190.36" r="0.35"/>
	<circle class="st2" cx="93.67" cy="190.23" r="0.35"/>
	<circle class="st2" cx="104.26" cy="197.31" r="0.35"/>
	<circle class="st2" cx="103.46" cy="198.05" r="0.35"/>
	<circle class="st2" cx="98.73" cy="207.97" r="0.35"/>
	<circle class="st2" cx="98.37" cy="208.95" r="0.35"/>
	<circle class="st2" cx="88.27" cy="205.78" r="0.35"/>
	<circle class="st2" cx="89.16" cy="206.26" r="0.35"/>
	<circle class="st2" cx="84.84" cy="195.36" r="0.35"/>
	<circle class="st2" cx="84.76" cy="194.14" r="0.35"/>
</g>
<g>
	<circle cx="184.75" cy="126.96" r="1.92"/>
	<circle cx="170.51" cy="138.18" r="1.92"/>
	<path d="M183.92,128.69"/>
	<g>
		<path d="M172.98,138.57c1.5,0,4.42-0.31,7.15-2.45c2.83-2.22,3.81-5.11,4.14-6.64l0.24,0.05c-0.34,1.56-1.33,4.51-4.23,6.78
			c-2.78,2.19-5.77,2.51-7.31,2.51L172.98,138.57z"/>
		<g>
			<path d="M183.16,130.64c0.04,0.04,0.1,0.04,0.14,0l1.07-1.09l0.53,1.43c0.02,0.05,0.08,0.08,0.13,0.06
				c0.05-0.02,0.08-0.08,0.06-0.13l-0.59-1.58c-0.01-0.03-0.04-0.06-0.07-0.06c-0.03-0.01-0.07,0-0.09,0.03l-1.18,1.2
				c-0.01,0.01-0.02,0.03-0.03,0.05C183.12,130.58,183.13,130.61,183.16,130.64z"/>
		</g>
		<g>
			<path d="M174.34,137.73c0.03,0.05,0.02,0.11-0.03,0.14l-1.29,0.82l1.29,0.83c0.05,0.03,0.06,0.09,0.03,0.14
				c-0.03,0.05-0.09,0.06-0.14,0.03l-1.42-0.91c-0.03-0.02-0.05-0.05-0.05-0.08c0-0.03,0.02-0.07,0.05-0.08l1.42-0.9
				c0.02-0.01,0.04-0.02,0.05-0.02C174.29,137.69,174.33,137.7,174.34,137.73z"/>
		</g>
	</g>
	<circle cx="167.26" cy="125.07" r="1.92"/>
	<g>
		<path d="M166.85,127.98l0.25,0.02c-0.1,1.3-0.01,2.61,0.27,3.88c0.32,1.47,0.89,2.86,1.68,4.14l-0.21,0.13
			c-0.81-1.3-1.38-2.72-1.71-4.22C166.83,130.63,166.74,129.3,166.85,127.98z"/>
		<g>
			<path d="M167.84,129.41c-0.05,0.03-0.11,0.01-0.14-0.04l-0.74-1.34l-0.9,1.23c-0.03,0.04-0.1,0.05-0.14,0.02
				c-0.04-0.03-0.05-0.1-0.02-0.14l1-1.36c0.02-0.03,0.05-0.04,0.09-0.04c0.03,0,0.06,0.02,0.08,0.05l0.81,1.48
				c0.01,0.02,0.01,0.04,0.01,0.05C167.89,129.36,167.87,129.39,167.84,129.41z"/>
		</g>
	</g>
	<circle cx="175.49" cy="130.37" r="1.92"/>
	<g>
		<path d="M176.38,127.75c0.26-0.47,1.02-1.61,2.52-2.13c1.45-0.51,2.73-0.14,3.36,0.12l-0.1,0.23c-0.6-0.25-1.8-0.59-3.18-0.11
			c-1.42,0.5-2.14,1.58-2.39,2.02L176.38,127.75z"/>
		<g>
			<path d="M180.58,126.21c-0.01-0.05,0.03-0.11,0.08-0.12l1.51-0.26l-0.87-1.26c-0.03-0.05-0.02-0.11,0.03-0.14
				s0.11-0.02,0.14,0.03l0.96,1.39c0.02,0.03,0.02,0.06,0.01,0.1s-0.04,0.05-0.08,0.06l-1.66,0.28c-0.02,0-0.04,0-0.06-0.01
				C180.61,126.28,180.59,126.25,180.58,126.21z"/>
		</g>
	</g>
	<g>
		<path d="M170.15,123.7c0.52-0.16,1.31-0.31,2.15-0.05c1.52,0.46,2.65,2.06,2.81,3.98l-0.25,0.02c-0.15-1.82-1.21-3.33-2.63-3.77
			c-0.78-0.24-1.52-0.1-2,0.05L170.15,123.7z"/>
		<g>
			<path d="M171.78,124.32c0.01-0.05-0.02-0.11-0.07-0.12l-1.48-0.38l0.97-1.18c0.04-0.04,0.03-0.11-0.01-0.14
				c-0.04-0.04-0.11-0.03-0.14,0.01l-1.07,1.3c-0.02,0.03-0.03,0.06-0.02,0.09c0.01,0.03,0.04,0.06,0.07,0.07l1.63,0.42
				c0.02,0,0.04,0,0.06,0C171.75,124.38,171.77,124.35,171.78,124.32z"/>
		</g>
		<g>
			<path d="M173.93,126.35c0.04-0.03,0.11-0.02,0.14,0.02l0.91,1.23l0.73-1.35c0.03-0.05,0.09-0.07,0.14-0.04
				c0.05,0.03,0.07,0.09,0.04,0.14l-0.8,1.48c-0.02,0.03-0.05,0.05-0.08,0.05s-0.07-0.01-0.09-0.04l-1.01-1.35
				c-0.01-0.02-0.02-0.03-0.02-0.05C173.88,126.41,173.9,126.37,173.93,126.35z"/>
		</g>
	</g>
	<circle cx="181.98" cy="139.76" r="1.92"/>
	<g>
		<path d="M186.53,129.22l0.24-0.05c0.25,1.19,0.41,3.04-0.24,5.12c-0.47,1.51-1.3,2.92-2.41,4.07l-0.18-0.17
			c1.08-1.12,1.89-2.49,2.35-3.97C186.92,132.19,186.77,130.38,186.53,129.22z"/>
		<g>
			<path d="M187.83,130.36c-0.04,0.04-0.1,0.04-0.14,0l-1.04-1.12l-0.57,1.42c-0.02,0.05-0.08,0.08-0.13,0.06
				c-0.05-0.02-0.08-0.08-0.06-0.13l0.63-1.56c0.01-0.03,0.04-0.05,0.07-0.06c0.03-0.01,0.07,0.01,0.09,0.03l1.15,1.23
				c0.01,0.01,0.02,0.03,0.03,0.05C187.87,130.3,187.86,130.34,187.83,130.36z"/>
		</g>
	</g>
	<circle cx="177.48" cy="119.2" r="1.92"/>
	<g>
		<path d="M162.94,124.47c0.56-1.17,1.39-2.27,2.46-3.26c3.48-3.21,7.94-2.92,9.23-2.75l-0.03,0.25c-1.26-0.16-5.63-0.44-9.03,2.69
			c-2.03,1.87-3.15,4.13-3.24,6.53c-0.14,3.56,1.98,6.99,5.53,8.95l-0.12,0.22c-3.63-2-5.8-5.52-5.66-9.18
			C162.12,126.72,162.41,125.56,162.94,124.47z"/>
		<g>
			<path d="M173.38,117.46c-0.04,0.04-0.03,0.11,0.01,0.14l1.17,0.98l-1.38,0.65c-0.05,0.02-0.07,0.08-0.05,0.13
				c0.02,0.05,0.08,0.07,0.13,0.05l1.53-0.71c0.03-0.01,0.05-0.04,0.06-0.08c0-0.03-0.01-0.07-0.03-0.09l-1.29-1.08
				c-0.02-0.01-0.03-0.02-0.05-0.02C173.44,117.42,173.4,117.43,173.38,117.46z"/>
		</g>
		<g>
			<path d="M166.13,137.14c0-0.06,0.04-0.1,0.09-0.1l1.53-0.08l-0.72-1.35c-0.03-0.05-0.01-0.11,0.04-0.14
				c0.05-0.03,0.11-0.01,0.14,0.04l0.79,1.49c0.02,0.03,0.02,0.07,0,0.1c-0.02,0.03-0.05,0.05-0.08,0.05l-1.68,0.09
				c-0.02,0-0.04,0-0.05-0.01C166.16,137.2,166.14,137.17,166.13,137.14z"/>
		</g>
	</g>
	<g>
		<rect x="171.14" y="134.22" transform="matrix(0.5584 -0.8296 0.8296 0.5584 -35.0052 202.934)" width="3.95" height="0.25"/>
		<g>
			<path d="M174.25,134.38c-0.06,0-0.1-0.05-0.1-0.1l0.04-1.53l-1.4,0.61c-0.05,0.02-0.11,0-0.13-0.05c-0.02-0.05,0-0.11,0.05-0.13
				l1.55-0.67c0.03-0.01,0.07-0.01,0.1,0.01c0.03,0.02,0.04,0.05,0.04,0.09l-0.04,1.69c0,0.02-0.01,0.04-0.02,0.05
				C174.32,134.36,174.29,134.38,174.25,134.38z"/>
		</g>
	</g>
	<g>
		<path d="M180.06,119.76c5.41-0.43,10.34,3.33,11.22,8.56c0.79,4.73-1.94,9.49-6.5,11.33l-0.09-0.23c4.45-1.8,7.12-6.45,6.34-11.06
			c-0.86-5.1-5.67-8.77-10.95-8.35L180.06,119.76z"/>
		<g>
			<path d="M185.61,138.11c0.05,0.03,0.06,0.09,0.03,0.14l-0.86,1.26l1.51,0.25c0.05,0.01,0.09,0.06,0.08,0.11s-0.06,0.09-0.11,0.08
				l-1.66-0.27c-0.03-0.01-0.06-0.03-0.08-0.06c-0.01-0.03-0.01-0.07,0.01-0.1l0.95-1.39c0.01-0.02,0.03-0.03,0.04-0.04
				C185.54,138.09,185.58,138.09,185.61,138.11z"/>
		</g>
	</g>
	<g>
		<path d="M162.43,129.99c0.66-1.37,1.59-2.64,2.78-3.71l0.17,0.19c-3.31,3-4.63,7.55-3.35,11.6c0.72,2.28,2.24,4.31,4.26,5.71
			c2.06,1.42,4.46,2.06,6.77,1.8c3.63-0.42,6-2.96,6.85-4.04l0.2,0.15c-0.87,1.1-3.29,3.71-7.02,4.13
			c-2.37,0.27-4.83-0.38-6.94-1.84c-2.07-1.43-3.62-3.51-4.36-5.84C160.94,135.45,161.21,132.54,162.43,129.99z"/>
		<g>
			<path d="M179.91,143.69c-0.07-0.01-0.12-0.07-0.11-0.14l0.18-1.9l-1.8,0.64c-0.07,0.02-0.14-0.01-0.16-0.08
				c-0.02-0.06,0.01-0.14,0.08-0.16l1.99-0.7c0.04-0.01,0.08-0.01,0.12,0.02c0.03,0.03,0.05,0.07,0.05,0.11l-0.2,2.1
				c0,0.02-0.01,0.05-0.03,0.06C179.99,143.67,179.95,143.69,179.91,143.69z"/>
		</g>
	</g>
	<circle class="st2" cx="175.3" cy="131.11" r="0.35"/>
	<circle class="st2" cx="176.29" cy="130.69" r="0.35"/>
	<circle class="st2" cx="170.61" cy="137.16" r="0.35"/>
	<circle class="st2" cx="171.48" cy="137.92" r="0.35"/>
	<circle class="st2" cx="166.72" cy="126.1" r="0.35"/>
	<circle class="st2" cx="167.8" cy="125.95" r="0.35"/>
	<circle class="st2" cx="177.3" cy="120.41" r="0.35"/>
	<circle class="st2" cx="178.15" cy="119.8" r="0.35"/>
	<circle class="st2" cx="184.71" cy="128.11" r="0.35"/>
	<circle class="st2" cx="184.24" cy="127.21" r="0.35"/>
	<circle class="st2" cx="181.67" cy="138.65" r="0.35"/>
	<circle class="st2" cx="181.05" cy="139.7" r="0.35"/>
</g>
</svg>
