<?xml version="1.0" encoding="utf-8"?>
<!-- Generator: Adobe Illustrator 24.1.2, SVG Export Plug-In . SVG Version: 6.00 Build 0)  -->
<svg version="1.1" id="Layer_1" xmlns="http://www.w3.org/2000/svg" xmlns:xlink="http://www.w3.org/1999/xlink" x="0px" y="0px"
	 viewBox="0 0 32 32" style="enable-background:new 0 0 32 32;" xml:space="preserve">
<style type="text/css">
	.st0{fill:#ED1C24;}
	.st1{fill-opacity:0;}
</style>
<g>
	<rect x="2" y="22" class="st0" width="8" height="8"/>
	<rect x="2" y="12" class="st0" width="8" height="8"/>
	<rect x="12" y="12" class="st0" width="8" height="8"/>
	<g>
		<rect x="12" y="2" class="st0" width="8" height="8"/>
		<path class="st1" d="M20,0h-8h-2v2v8H2H0v2v8v2v8v2h2h8h2v-2v-8h8h2v-2v-8v-2V2V0H20z M2,12h8v8H2V12z M10,30H2v-8h8V30z M20,20
			h-8v-8h8V20z M12,10V2h8v8H12z"/>
	</g>
</g>
</svg>
